<?xml version="1.0" standalone="no"?><!DOCTYPE svg PUBLIC "-//W3C//DTD SVG 1.1//EN" "http://www.w3.org/Graphics/SVG/1.1/DTD/svg11.dtd"><svg t="1499418638311" class="icon" style="" viewBox="0 0 18 22" version="1.1" xmlns="http://www.w3.org/2000/svg" p-id="1845" xmlns:xlink="http://www.w3.org/1999/xlink"><defs><style type="text/css"></style></defs><path d="M9 20.5c5.633 0 7.5-.507 7.5-2.5 0-2.484-3.27-4.5-7.5-4.5S1.5 15.516 1.5 18c0 1.993 1.867 2.5 7.5 2.5zm0 1C2.742 21.5.5 20.892.5 18c0-3.164 3.787-5.5 8.5-5.5s8.5 2.336 8.5 5.5c0 2.892-2.242 3.5-8.5 3.5zm0-11a4.5 4.5 0 1 0 0-9 4.5 4.5 0 0 0 0 9zm0 1a5.5 5.5 0 1 1 0-11 5.5 5.5 0 0 1 0 11z" p-id="1846" fill="#21d693"></path></svg>