<?xml version="1.0" standalone="no"?><!DOCTYPE svg PUBLIC "-//W3C//DTD SVG 1.1//EN" "http://www.w3.org/Graphics/SVG/1.1/DTD/svg11.dtd"><svg t="1499418638311" class="icon" style="" viewBox="0 0 18 16" version="1.1" xmlns="http://www.w3.org/2000/svg" p-id="1845" xmlns:xlink="http://www.w3.org/1999/xlink"><defs><style type="text/css"></style></defs><path d="M.5 1h14C15.88 1 17 2.121 17 3.5 17 4.884 15.886 6 14.5 6H.5a.5.5 0 0 0 0 1h14C16.44 7 18 5.436 18 3.5 18 1.57 16.432 0 14.5 0H.5a.5.5 0 1 0 0 1z" fill="#21d693"></path><path d="M1.146.854c.09.089.245.296.407.62C1.832 2.03 2 2.705 2 3.5c0 .795-.168 1.469-.447 2.026-.162.324-.318.531-.407.62l.708.708c.16-.161.38-.454.593-.88C2.793 5.28 3 4.455 3 3.5c0-.955-.207-1.781-.553-2.474C2.234.6 2.015.307 1.854.146l-.708.708zM17.5 9h-14C1.568 9 0 10.57 0 12.5 0 14.436 1.56 16 3.5 16h14a.5.5 0 1 0 0-1h-14A2.494 2.494 0 0 1 1 12.5C1 11.121 2.12 10 3.5 10h14a.5.5 0 1 0 0-1z" fill="#21d693"></path><path d="M16.146 9.146c-.16.161-.38.454-.593.88-.346.693-.553 1.519-.553 2.474 0 .955.207 1.781.553 2.474.213.426.432.719.593.88l.708-.708c-.09-.089-.245-.296-.407-.62C16.168 13.97 16 13.295 16 12.5c0-.795.168-1.469.447-2.026.162-.324.318-.531.407-.62l-.708-.708z" fill="#21d693"></path></svg>