<?xml version="1.0" standalone="no"?><!DOCTYPE svg PUBLIC "-//W3C//DTD SVG 1.1//EN" "http://www.w3.org/Graphics/SVG/1.1/DTD/svg11.dtd"><svg t="1528639743297" class="icon" style="" viewBox="0 0 1024 1024" version="1.1" xmlns="http://www.w3.org/2000/svg" p-id="1258" xmlns:xlink="http://www.w3.org/1999/xlink" width="200" height="200"><defs><style type="text/css"></style></defs><path d="M145.64864 184.0896l385.05472-102.09792 166.12352 626.50368-385.05984 102.10304z" fill="#FFDD50" p-id="1259"></path><path d="M311.78752 828.52864a17.95584 17.95584 0 0 1-17.33632-13.35296L128.30208 188.67712a17.93024 17.93024 0 0 1 12.7488-21.94944l385.04448-102.1184a17.9456 17.9456 0 0 1 21.95456 12.7488l166.15424 626.49856a17.94048 17.94048 0 0 1-12.7488 21.95456l-385.05472 102.1184c-1.536 0.40448-3.08736 0.59904-4.61312 0.59904zM167.6032 196.82304l156.94848 591.7952 350.35136-92.91776-156.9536-591.79008-350.34624 92.91264z" fill="" p-id="1260"></path><path d="M225.72032 286.88384a17.95072 17.95072 0 0 1-17.33632-13.35296l-12.35968-46.592a17.95072 17.95072 0 1 1 34.70336-9.20576l12.35968 46.592a17.95072 17.95072 0 0 1-17.36704 22.55872zM630.3232 691.00544a17.9712 17.9712 0 0 1-17.34144-13.35296l-12.35968-46.59712a17.95072 17.95072 0 0 1 12.7488-21.95456 17.93024 17.93024 0 0 1 21.95456 12.7488l12.35968 46.59712a17.95072 17.95072 0 0 1-17.36192 22.55872z" fill="" p-id="1261"></path><path d="M454.28736 570.83392l-137.27232-96.9216 71.19872-152.2176 137.27232 96.92672z" fill="#5CB9FF" p-id="1262"></path><path d="M454.28736 588.78976c-3.67104 0-7.296-1.1264-10.35264-3.28704L306.6624 488.57088a17.95072 17.95072 0 0 1-5.90848-22.26688l71.19872-152.21248a17.95584 17.95584 0 0 1 26.61376-7.05536l137.2672 96.92672a17.94048 17.94048 0 0 1 5.90336 22.26688l-71.1936 152.21248a17.95072 17.95072 0 0 1-16.256 10.34752zM339.6352 467.91168l107.47904 75.89376 55.74144-119.18336-107.47392-75.88864-55.74656 119.17824z" fill="" p-id="1263"></path><path d="M718.06976 940.86656l-333.76768-72.3712a28.416 28.416 0 0 1-21.74976-33.792l125.30176-577.8944a28.416 28.416 0 0 1 33.792-21.74976l333.76768 72.3712a28.416 28.416 0 0 1 21.74976 33.792l-125.30176 577.8944a28.416 28.416 0 0 1-33.792 21.74976z" fill="#FFDD50" p-id="1264"></path><path d="M726.30272 960a43.99616 43.99616 0 0 1-9.3184-1.00352l-339.2-73.54368c-23.49056-5.10464-38.45632-28.35968-33.36704-51.84512l126.47424-583.3216a43.29472 43.29472 0 0 1 19.01056-27.4176 43.29984 43.29984 0 0 1 32.82944-5.94432l339.18976 73.54368a43.29984 43.29984 0 0 1 27.42272 19.01056 43.29984 43.29984 0 0 1 5.94944 32.82944l-126.47424 583.3216a43.33568 43.33568 0 0 1-19.01056 27.42272 43.36128 43.36128 0 0 1-23.50592 6.94784z m-1.72032-36.09088a7.71584 7.71584 0 0 0 9.14432-5.88288l126.47936-583.3216a7.68512 7.68512 0 0 0-5.88288-9.14944l-339.19488-73.54368a7.68 7.68 0 0 0-9.14944 5.888L379.50464 841.216a7.71072 7.71072 0 0 0 5.89312 9.15456l339.18464 73.53856z" fill="" p-id="1265"></path><path d="M728.67328 563.584c-1.20832-41.99936-45.42464-75.97568-96.768-31.18592-28.1856-62.0288-82.49856-49.42336-100.99712-11.69408-29.35296 59.86816 40.93952 127.24736 70.144 153.98912 37.6576-12.24704 129.54112-44.46208 127.62112-111.10912z" fill="#FF5757" p-id="1266"></path><path d="M601.05216 692.63872c-4.42368 0-8.76544-1.6384-12.12416-4.71552-27.30496-25.0112-110.41792-101.12-74.13248-175.12448 12.57984-25.66144 37.76512-42.14784 64.17408-41.60512 22.8096 0.3328 43.4432 12.78976 58.65472 34.8416 22.96832-13.7728 46.91456-16.5632 67.80928-7.424 24.19712 10.58304 40.36096 35.87584 41.1904 64.45056 2.37056 82.41152-104.80128 117.248-140.02176 128.6912a17.88928 17.88928 0 0 1-5.55008 0.88576z m-23.00928-185.5488c-12.44672 0-24.58112 8.40192-31.01184 21.51936-15.51872 31.6416 4.15232 73.89184 58.44992 125.65504 70.87104-24.61696 106.27072-54.92736 105.25184-90.16832-0.42496-14.75584-8.15104-27.5456-19.68128-32.5888-13.24544-5.79584-30.04416-0.6656-47.33952 14.4128a17.94048 17.94048 0 0 1-28.13952-6.09792c-9.4976-20.89472-22.67648-32.51712-37.12512-32.73216h-0.40448zM526.55104 359.00416a17.95072 17.95072 0 0 1-17.55648-21.76l10.2144-47.11424a17.95072 17.95072 0 1 1 35.08736 7.60832l-10.21952 47.11424a17.95584 17.95584 0 0 1-17.52576 14.15168zM702.75584 903.02976a17.95584 17.95584 0 0 1-17.55648-21.76l10.21952-47.10912a17.95072 17.95072 0 1 1 35.08736 7.61344l-10.21952 47.10912a17.96096 17.96096 0 0 1-17.53088 14.14656z" fill="" p-id="1267"></path></svg>