<?xml version="1.0" standalone="no"?><!DOCTYPE svg PUBLIC "-//W3C//DTD SVG 1.1//EN" "http://www.w3.org/Graphics/SVG/1.1/DTD/svg11.dtd"><svg t="1542418010430" class="icon" style="" viewBox="0 0 1024 1024" version="1.1" xmlns="http://www.w3.org/2000/svg" p-id="9520" xmlns:xlink="http://www.w3.org/1999/xlink" width="200" height="200"><defs><style type="text/css"></style></defs><path d="M930.873 315.35c0 12.652-10.258 22.909-22.91 22.909H122.181c-12.652 0-22.909-10.257-22.909-22.909V187.058c0-12.652 10.256-22.908 22.909-22.908h785.782c12.652 0 22.91 10.256 22.91 22.908V315.35z" fill="#5F8234" p-id="9521"></path><path d="M875.797 130.105H749.338V79.253c0-11.388-9.23-20.619-20.617-20.619s-20.619 9.231-20.619 20.619v50.852H312.797V79.253c0-11.388-9.233-20.619-20.619-20.619-11.387 0-20.618 9.231-20.618 20.619v50.852H148.205c-47.176 0-85.558 38.382-85.558 85.558V873.77c0 47.176 38.382 85.557 85.558 85.557h727.592c47.178 0 85.557-38.381 85.557-85.557V215.663c0-47.176-38.379-85.558-85.557-85.558z m-727.592 41.236H271.56v89.415c0 11.388 9.231 20.618 20.618 20.618 11.386 0 20.619-9.23 20.619-20.618v-89.415h395.305v89.415c0 11.388 9.232 20.618 20.619 20.618s20.617-9.23 20.617-20.618v-89.415h126.459c24.438 0 44.32 19.883 44.32 44.321v106.263H103.883V215.663c0-24.439 19.882-44.322 44.322-44.322zM875.797 918.09H148.205c-24.439 0-44.321-19.881-44.321-44.32V363.162h816.234V873.77c-0.001 24.439-19.884 44.32-44.321 44.32z" fill="#090204" p-id="9522"></path><path d="M267.01 455.275c-42.389 0-76.875 34.485-76.875 76.875 0 42.389 34.486 76.873 76.875 76.873s76.873-34.484 76.873-76.873c0-42.39-34.485-76.875-76.873-76.875z m0 112.512c-19.652 0-35.639-15.988-35.639-35.637 0-19.652 15.987-35.639 35.639-35.639 19.649 0 35.637 15.987 35.637 35.639-0.001 19.649-15.988 35.637-35.637 35.637zM512.837 455.275c-42.389 0-76.873 34.485-76.873 76.875 0 42.389 34.484 76.873 76.873 76.873 42.387 0 76.875-34.484 76.875-76.873 0.001-42.39-34.487-76.875-76.875-76.875z m0 112.512c-19.649 0-35.637-15.988-35.637-35.637 0-19.652 15.987-35.639 35.637-35.639 19.651 0 35.639 15.987 35.639 35.639 0.001 19.649-15.988 35.637-35.639 35.637zM758.666 455.275c-42.387 0-76.875 34.485-76.875 76.875 0 42.389 34.488 76.873 76.875 76.873 42.391 0 76.873-34.484 76.873-76.873 0-42.39-34.482-76.875-76.873-76.875z m0 112.512c-19.65 0-35.639-15.988-35.639-35.637 0-19.652 15.988-35.639 35.639-35.639 19.652 0 35.637 15.987 35.637 35.639 0 19.649-15.985 35.637-35.637 35.637zM267.01 664.951c-42.389 0-76.875 34.484-76.875 76.873s34.486 76.877 76.875 76.877 76.873-34.488 76.873-76.877-34.485-76.873-76.873-76.873z m0 112.514c-19.652 0-35.639-15.988-35.639-35.641 0-19.648 15.987-35.635 35.639-35.635 19.649 0 35.637 15.986 35.637 35.635-0.001 19.653-15.988 35.641-35.637 35.641zM512.837 664.951c-42.389 0-76.873 34.484-76.873 76.873s34.484 76.877 76.873 76.877c42.387 0 76.875-34.488 76.875-76.877s-34.487-76.873-76.875-76.873z m0 112.514c-19.649 0-35.637-15.988-35.637-35.641 0-19.648 15.987-35.635 35.637-35.635 19.651 0 35.639 15.986 35.639 35.635 0.001 19.653-15.988 35.641-35.639 35.641zM758.666 664.951c-42.387 0-76.875 34.484-76.875 76.873s34.488 76.877 76.875 76.877c42.391 0 76.873-34.488 76.873-76.877s-34.482-76.873-76.873-76.873z m0 112.514c-19.65 0-35.639-15.988-35.639-35.641 0-19.648 15.988-35.635 35.639-35.635 19.652 0 35.637 15.986 35.637 35.635 0 19.653-15.985 35.641-35.637 35.641z" fill="#090204" p-id="9523"></path></svg>