<?xml version="1.0" standalone="no"?><!DOCTYPE svg PUBLIC "-//W3C//DTD SVG 1.1//EN" "http://www.w3.org/Graphics/SVG/1.1/DTD/svg11.dtd"><svg t="1528639747863" class="icon" style="" viewBox="0 0 1024 1024" version="1.1" xmlns="http://www.w3.org/2000/svg" p-id="1386" xmlns:xlink="http://www.w3.org/1999/xlink" width="200" height="200"><defs><style type="text/css"></style></defs><path d="M443.42784 569.45664l-15.99488 83.26144h56.94464l13.86496-83.26144" fill="#FFDD50" p-id="1387"></path><path d="M484.3776 670.7456H427.43296a17.88928 17.88928 0 0 1-13.81888-6.5536 18.1248 18.1248 0 0 1-3.77344-14.89408l15.99488-83.26144a17.9456 17.9456 0 0 1 20.992-14.27968c9.71264 1.88928 16.06656 11.34592 14.19264 21.12l-11.8784 61.81888h20.0704l11.36128-68.21376a17.96096 17.96096 0 0 1 20.62848-14.80192c9.75872 1.64352 16.34304 10.94144 14.70976 20.75648l-13.86496 83.26144a17.9456 17.9456 0 0 1-17.66912 15.04768z" fill="" p-id="1388"></path><path d="M331.45344 368.59904v-41.68192c0-13.12768 10.57792-23.76704 23.61856-23.76704h19.46112V203.89888h-33.05984c-51.24096 0-92.77952 41.79456-92.77952 93.34784v71.3472" fill="#FFDD50" p-id="1389"></path><path d="M331.45344 386.62144c-9.89696 0-17.91488-8.06912-17.91488-18.02752V326.912c0-23.04512 18.63168-41.79456 41.53856-41.79456h1.54624V221.9264h-15.13984c-41.28256 0-74.85952 33.78688-74.85952 75.32032v71.3472c0 9.95328-8.02304 18.02752-17.91488 18.02752-9.89696 0-17.91488-8.06912-17.91488-18.02752V297.24672c0-61.40928 49.65888-111.37024 110.6944-111.37024h33.05472c9.89696 0 17.91488 8.06912 17.91488 18.02752v99.24608c0 9.95328-8.02304 18.02752-17.91488 18.02752h-19.46112c-3.1488 0-5.70368 2.57536-5.70368 5.73952v41.68192c-0.00512 9.95328-8.02816 18.0224-17.92512 18.0224z" fill="" p-id="1390"></path><path d="M745.11872 395.3152H502.93248c-35.69152 0-64.62464-28.93312-64.62464-64.62464V185.05216c0-35.69152 28.93312-64.62464 64.62464-64.62464h242.18112c75.44832 0 136.60672 61.16352 136.60672 136.60672v1.67424c0.00512 75.44832-61.1584 136.60672-136.6016 136.60672z" fill="#FFDD50" p-id="1391"></path><path d="M745.11872 413.34272H502.93248c-45.51168 0-82.53952-37.25312-82.53952-83.0464V185.4464c0-45.79328 37.02784-83.0464 82.53952-83.0464h242.18112c85.20704 0 154.5216 69.74464 154.5216 155.4688s-69.31456 155.47392-154.51648 155.47392z m-242.18624-274.8928c-25.75872 0-46.70976 21.07904-46.70976 46.99648v144.84992c0 25.91232 20.95104 46.99648 46.70976 46.99648h242.18112c65.44384 0 118.69184-53.57056 118.69184-119.41888s-53.248-119.41888-118.69184-119.41888H502.93248z" fill="" p-id="1392"></path><path d="M374.53824 220.2112h63.7696v75.32032H374.53824z" fill="#FFDD50" p-id="1393"></path><path d="M438.30784 313.55904H374.53824c-9.89696 0-17.91488-8.06912-17.91488-18.02752V220.2112c0-9.95328 8.02304-18.02752 17.91488-18.02752h63.77472c9.89696 0 17.91488 8.06912 17.91488 18.02752v75.32032c0 9.9584-8.02304 18.02752-17.92 18.02752zM392.45312 277.504h27.93984v-39.2704h-27.93984v39.2704z" fill="" p-id="1394"></path><path d="M81.91488 499.06688l110.90944 20.60288V422.67648l-110.90944 20.60288z" fill="#FF5757" p-id="1395"></path><path d="M192.8192 537.69728c-1.08032 0-2.17088-0.1024-3.2512-0.30208l-110.90432-20.59776a17.99168 17.99168 0 0 1-14.66368-17.72544V443.27936a17.99168 17.99168 0 0 1 14.66368-17.72544l110.90432-20.60288a17.79712 17.79712 0 0 1 14.70976 3.87072 18.05824 18.05824 0 0 1 6.45632 13.85472v96.99328a18.0736 18.0736 0 0 1-6.45632 13.85472 17.8176 17.8176 0 0 1-11.45856 4.1728zM99.82976 484.06528l75.07456 13.94688V444.33408l-75.07456 13.94688v25.78432z" fill="" p-id="1396"></path><path d="M827.97568 569.45664h-527.872l-107.27936-14.16192V368.59904h181.71392v41.20576h453.43744z" fill="#5CB9FF" p-id="1397"></path><path d="M759.72608 409.8048h68.2496v159.65184h-68.2496z" fill="#FF5757" p-id="1398"></path><path d="M827.97568 587.48416H300.09856c-0.77824 0-1.55648-0.0512-2.3296-0.14848l-107.27936-14.16192a17.9968 17.9968 0 0 1-15.58528-17.87392V368.59904c0-9.9584 8.02304-18.02752 17.91488-18.02752h181.71904c9.89696 0 17.91488 8.06912 17.91488 18.02752v23.18336h435.52256c9.89184 0 17.91488 8.06912 17.91488 18.02752v159.65184c0 9.94816-8.02304 18.0224-17.91488 18.0224z m-526.70464-36.05504h508.78976V427.8272H374.53824c-9.89696 0-17.91488-8.06912-17.91488-18.02752v-23.18336H210.7392v152.8576l90.53184 11.9552z" fill="" p-id="1399"></path><path d="M759.72608 483.74784H374.53824c-9.89696 0-17.91488-8.06912-17.91488-18.02752V409.8048c0-9.9584 8.02304-18.02752 17.91488-18.02752 9.89696 0 17.91488 8.06912 17.91488 18.02752v37.89312h367.27296c9.89184 0 17.91488 8.06912 17.91488 18.02752a17.96608 17.96608 0 0 1-17.91488 18.0224zM567.55712 711.7312H377.5232a17.88928 17.88928 0 0 1-16.06144-10.04544l-60.99968-124.24704a18.0736 18.0736 0 0 1 8.13056-24.1408 17.8688 17.8688 0 0 1 23.99744 8.17664l56.06912 114.20672h178.90304c9.89184 0 17.91488 8.07424 17.91488 18.02752 0 9.94816-8.02304 18.0224-17.92 18.0224z" fill="" p-id="1400"></path><path d="M741.59616 569.45664l-12.15488 39.2704 110.09536 242.74432c11.0592 24.38144-6.656 52.10112-33.29024 52.10112h-188.13952l-3.51232-16.22528a56.6272 56.6272 0 0 1 19.51232-55.87968l-123.70432-262.016" fill="#5CB9FF" p-id="1401"></path><path d="M806.2464 921.6h-188.13952a17.94048 17.94048 0 0 1-17.50528-14.18752l-3.51232-16.22528c-4.94592-22.83008 0.91136-46.05952 15.40096-63.49312l-118.272-250.50112a18.07872 18.07872 0 0 1 8.49408-24.01792 17.8688 17.8688 0 0 1 23.86944 8.54528l123.6992 262.016a18.10432 18.10432 0 0 1-4.91008 21.74976 38.31808 38.31808 0 0 0-13.27616 38.02624l0.44032 2.03776h173.70624a18.33984 18.33984 0 0 0 15.71328-8.63232 18.56512 18.56512 0 0 0 1.28-17.96096l-110.10048-242.74944a18.1504 18.1504 0 0 1-0.80384-12.84608l12.15488-39.2704a17.88928 17.88928 0 0 1 22.43584-11.84768c9.4464 2.96448 14.71488 13.06624 11.776 22.57408l-10.12224 32.6912 107.25888 236.48256a54.9376 54.9376 0 0 1-3.7376 52.42368A54.1952 54.1952 0 0 1 806.2464 921.6z" fill="" p-id="1402"></path><path d="M911.90272 569.45664a30.17728 30.17728 0 0 1-30.17728-30.17728V419.3792a30.17728 30.17728 0 0 1 60.35456 0v119.89504a30.17728 30.17728 0 0 1-30.17728 30.1824z" fill="#FF5757" p-id="1403"></path><path d="M911.90272 587.48416c-26.51648 0-48.09216-21.7088-48.09216-48.38912V419.56352c0-26.68544 21.57568-48.38912 48.09216-48.38912 26.5216 0 48.09728 21.7088 48.09728 48.38912v119.5264c0 26.68544-21.57568 48.39424-48.09728 48.39424z m0-180.25984a12.3136 12.3136 0 0 0-12.2624 12.3392v119.5264c0 6.80448 5.49888 12.3392 12.2624 12.3392s12.26752-5.53472 12.26752-12.3392V419.56352a12.31872 12.31872 0 0 0-12.26752-12.3392z" fill="" p-id="1404"></path><path d="M827.97568 442.63424h53.74464v73.39008h-53.74464z" fill="#FF5757" p-id="1405"></path><path d="M881.72544 534.04672h-53.74464c-9.89184 0-17.91488-8.07424-17.91488-18.02752V442.63424c0-9.95328 8.02304-18.02752 17.91488-18.02752h53.74464c9.89184 0 17.91488 8.06912 17.91488 18.02752v73.39008c0 9.95328-8.02304 18.0224-17.91488 18.0224z m-35.83488-36.04992h17.91488v-37.34016h-17.91488v37.34016zM759.72608 587.48416c-9.89184 0-17.91488-8.07424-17.91488-18.02752V409.8048c0-9.9584 8.02304-18.02752 17.91488-18.02752 9.89184 0 17.91488 8.06912 17.91488 18.02752v159.65184c0.00512 9.95328-8.01792 18.02752-17.91488 18.02752z" fill="" p-id="1406"></path></svg>