<?xml version="1.0" standalone="no"?><!DOCTYPE svg PUBLIC "-//W3C//DTD SVG 1.1//EN" "http://www.w3.org/Graphics/SVG/1.1/DTD/svg11.dtd"><svg t="1540447357572" class="icon" style="" viewBox="0 0 1024 1024" version="1.1" xmlns="http://www.w3.org/2000/svg" p-id="1870" xmlns:xlink="http://www.w3.org/1999/xlink" width="200" height="200"><defs><style type="text/css"></style></defs><path d="M320.984615 240.246154L275.692308 202.830769c-13.784615-9.846154-29.538462-7.876923-41.353846 3.938462L5.907692 494.276923c-7.876923 9.846154-7.876923 25.6 0 37.415385L236.307692 817.230769c9.846154 11.815385 27.569231 15.753846 41.353846 3.938462l45.292308-37.415385c13.784615-9.846154 15.753846-29.538462 3.938462-41.353846L141.784615 512l187.076923-230.4c7.876923-11.815385 5.907692-29.538462-7.876923-41.353846z m697.107693 254.030769L787.692308 208.738462c-9.846154-11.815385-27.569231-15.753846-41.353846-3.938462l-45.292308 37.415385c-13.784615 9.846154-15.753846 29.538462-3.938462 41.353846l187.076923 230.4-187.076923 230.4c-9.846154 11.815385-7.876923 31.507692 3.938462 41.353846l45.292308 37.415385c13.784615 9.846154 29.538462 7.876923 41.353846-3.938462L1018.092308 531.692308c7.876923-13.784615 7.876923-27.569231 0-37.415385zM622.276923 212.676923l-59.076923-13.784615c-15.753846-3.938462-33.476923 5.907692-37.415385 21.661538l-145.723077 559.261539c-3.938462 15.753846 5.907692 31.507692 21.661539 35.446153l59.076923 13.784616c15.753846 3.938462 33.476923-5.907692 37.415385-21.661539l145.723077-559.261538c3.938462-17.723077-5.907692-31.507692-21.661539-35.446154z" p-id="1871" fill="#1296db"></path></svg>