<?xml version="1.0" standalone="no"?><!DOCTYPE svg PUBLIC "-//W3C//DTD SVG 1.1//EN" "http://www.w3.org/Graphics/SVG/1.1/DTD/svg11.dtd"><svg t="1531195800737" class="icon" style="" viewBox="0 0 1024 1024" version="1.1" xmlns="http://www.w3.org/2000/svg" p-id="9824" xmlns:xlink="http://www.w3.org/1999/xlink" width="200" height="200"><defs><style type="text/css"></style></defs><path d="M802.700825 491.297492c21.073968 0 41.129746 4.078899 60.164265 12.236696 19.035542 8.157797 35.690874 19.37528 49.967018 33.651424 14.276145 14.276145 25.493627 30.931476 33.651424 49.967018 8.157797 19.035542 12.236696 39.090297 12.236696 60.164265 0 21.754466-4.078899 41.97909-12.236696 60.673871-8.157797 18.694781-19.37528 35.181267-33.651424 49.457412-14.276145 14.276145-30.931476 25.493627-49.967018 33.651424-19.035542 8.157797-39.090297 12.236696-60.164265 12.236696-19.715017 0-38.239929-3.569292-55.57576-10.706853-17.33583-7.138584-32.801057-16.485463-46.397726-28.042683l0 127.467113c0 18.355043-6.458085 33.991162-19.37528 46.907333-12.916171 12.916171-28.55229 19.37528-46.907333 19.37528L131.714857 958.336488c-18.355043 0-34.161031-6.458085-47.417963-19.37528-13.256932-12.916171-19.884886-28.55229-19.884886-46.907333L64.412009 778.862907c3.399423-14.276145 9.517771-24.813129 18.355043-31.611975 8.837272-6.797823 21.754466-5.099135 38.749536 5.099135 8.157797 4.758374 14.276145 7.478322 18.355043 8.157797 17.675568 8.837272 35.690874 13.256932 54.045917 13.256932s35.521005-3.399423 51.496861-10.197246c15.975856-6.797823 29.912263-16.145725 41.809221-28.042683 11.896958-11.896958 21.24486-25.663496 28.042683-41.299615 6.797823-15.636119 10.197246-32.631188 10.197246-50.987255s-3.399423-35.521005-10.197246-51.496861c-6.797823-15.975856-16.145725-29.912263-28.042683-41.809221-11.896958-11.896958-25.833365-21.24486-41.809221-28.042683-15.975856-6.797823-33.141818-10.197246-51.496861-10.197246-17.675568 0-35.011398 3.739161-52.006468 11.217483-4.078899 1.359974-7.478322 2.718925-10.197246 4.078899-8.157797 4.078899-16.145725 7.818059-23.963785 11.217483-7.818059 3.399423-14.785751 4.758374-20.904099 4.078899-6.118348-0.679475-11.217483-4.078899-15.296381-10.197246-4.078899-6.118348-6.458085-16.315594-7.138584-30.591739L64.410985 394.423141c0-18.355043 6.627954-34.161031 19.884886-47.417963 13.256932-13.256932 29.062919-19.884886 47.417963-19.884886l159.079088 0c-10.876722-13.596669-19.545148-28.722158-26.003234-45.378513-6.458085-16.655332-9.68764-34.500768-9.68764-53.53631 0-22.433942 4.248767-43.339064 12.746302-62.71332 8.497535-19.37528 19.884886-36.20048 34.161031-50.476625 14.276145-14.276145 31.102369-25.663496 50.476625-34.161031 19.37528-8.497535 39.939641-12.746302 61.694107-12.746302 21.754466 0 42.318828 4.248767 61.694107 12.746302 19.37528 8.497535 36.20048 19.884886 50.476625 34.161031 14.276145 14.276145 25.663496 31.102369 34.161031 50.476625s12.746302 40.279379 12.746302 62.71332c0 38.07006-11.896958 71.04201-35.690874 98.9138l96.874351 0c18.355043 0 33.991162 6.627954 46.907333 19.884886 12.916171 13.256932 19.37528 29.062919 19.37528 47.417963l0 135.62491c13.596669-11.55722 29.062919-20.904099 46.397726-28.042683C764.459872 494.866784 782.985808 491.297492 802.700825 491.297492L802.700825 491.297492z" p-id="9825" fill="#54e502"></path></svg>