<?xml version="1.0" standalone="no"?><!DOCTYPE svg PUBLIC "-//W3C//DTD SVG 1.1//EN" "http://www.w3.org/Graphics/SVG/1.1/DTD/svg11.dtd"><svg t="1558063675052" class="icon" style="" viewBox="0 0 1024 1024" version="1.1" xmlns="http://www.w3.org/2000/svg" p-id="2773" xmlns:xlink="http://www.w3.org/1999/xlink" width="200" height="200"><defs><style type="text/css"></style></defs><path d="M721.55 64.223H301.116c-86.739 0-157.309 72.386-157.309 161.359v571.25c0 77.915 54.264 144.668 129.021 158.723 22.061 4.143 44.958-3.08 61.278-19.327l136.746-136.189c22.321-22.225 58.641-22.233 80.962 0l136.741 136.185c13.284 13.236 30.934 20.486 48.933 20.482 4.113 0 8.244-0.375 12.345-1.15 74.762-14.055 129.025-80.808 129.025-158.723v-571.25c0.001-88.974-70.569-161.36-157.308-161.36z m-9.326 323.603l-75.667 74.281a14.615 14.615 0 0 0-4.157 12.892l17.918 104.828c1.719 10.038-2.382 20.19-10.57 26.185a26.481 26.481 0 0 1-28.019 2.048l-93.589-49.451a14.37 14.37 0 0 0-13.471 0.004l-93.545 49.538a26.453 26.453 0 0 1-12.384 3.08 26.474 26.474 0 0 1-15.631-5.106c-8.197-5.986-12.302-16.134-10.595-26.176l17.822-104.845a14.613 14.613 0 0 0-4.165-12.888l-75.732-74.207c-7.253-7.111-9.868-17.746-6.742-27.44 3.126-9.694 11.449-16.757 21.468-18.229l104.604-15.341a14.478 14.478 0 0 0 10.89-7.973l46.742-95.404c4.477-9.136 13.726-14.927 23.85-14.931h0.013c10.124 0 19.368 5.782 23.85 14.914l46.825 95.365a14.49 14.49 0 0 0 10.907 7.96l104.613 15.241c10.02 1.464 18.351 8.522 21.481 18.212 3.134 9.688 0.532 20.328-6.716 27.443z" fill="#4D4D4D" p-id="2774"></path></svg>