<?xml version="1.0" standalone="no"?>
<!DOCTYPE svg PUBLIC "-//W3C//DTD SVG 1.1//EN" "http://www.w3.org/Graphics/SVG/1.1/DTD/svg11.dtd" >
<!--
2013-9-30: Created.
-->
<svg>
<metadata>
Created by iconfont
</metadata>
<defs>

<font id="iconfont" horiz-adv-x="1024" >
  <font-face
    font-family="iconfont"
    font-weight="500"
    font-stretch="normal"
    units-per-em="1024"
    ascent="896"
    descent="-128"
  />
    <missing-glyph />
    
    <glyph glyph-name="guanzhu" unicode="&#58971;" d="M512 256a128 128 0 1 0 0 256 128 128 0 0 0 0-256z m0 51.2a76.8 76.8 0 1 1 0 153.6 76.8 76.8 0 0 1 0-153.6zM515.104 602.112c-167.36 0-322.016-84.608-406.72-210.56 84.544-135.296 239.2-225.664 406.72-225.664 168.544 0 327.872 91.52 412.224 225.696-84.512 124.864-243.872 210.528-412.224 210.528z m0 69.888c197.696 0 384.64-105.664 477.536-260.576l11.104-18.496-10.56-18.88C900.608 208.704 713.568 96 515.104 96 317.6 96 135.744 207.552 42.56 374.048l-10.56 18.88 11.104 18.496C136.64 567.424 318.368 672 515.104 672z"  horiz-adv-x="1024" />

    
    <glyph glyph-name="cl-icon-AccountBook" unicode="&#58928;" d="M910.4 373.6H775.2V773.1c0 12.6-6.5 24.2-17.3 30.7-10.7 6.5-24.1 7-35.2 1.2l-139.1-71.8-117.9 70.7c-10.5 6.3-23.5 6.8-34.5 1.4L283.1 732 126.7 805.6c-11.2 5.2-24.2 4.4-34.6-2.2-10.4-6.6-16.7-18.1-16.7-30.4v-649.4c0-88.5 72-160.6 160.6-160.6h498.4c1.6-0.2 3.3-0.4 5-0.4h171.1c20.3 0 36.9 16.5 36.9 36.9V336.7c-0.1 20.4-16.6 36.9-37 36.9zM147.3 123.7V716.3l120.8-56.9c9.9-4.7 21.5-4.6 31.3 0.3L445.5 732l118.2-70.9c10.7-6.4 24-6.8 35-1.1l104.5 54v-678.8H235.9c-48.8-0.1-88.6 39.6-88.6 88.5z m728-89H775.2V301.6h100.2v-266.9zM372.1 471.2h136.7c19.9 0 36 16.1 36 36s-16.1 36-36 36H372.1c-19.9 0-36-16.1-36-36s16.1-36 36-36zM587.3 373.6H275.9c-19.9 0-36-16.1-36-36s16.1-36 36-36h311.4c19.9 0 36 16.1 36 36s-16.1 36-36 36zM587.3 188.8H275.9c-19.9 0-36-16.1-36-36s16.1-36 36-36h311.4c19.9 0 36 16.1 36 36s-16.1 36-36 36z"  horiz-adv-x="1024" />

    
    <glyph glyph-name="cl-icon-Bill" unicode="&#58929;" d="M770.7 740.5H695c-16.8 46.1-61.1 79.2-113 79.2H444.4c-51.9 0-96.2-33-113-79.2H252c-45.6 0-82.7-37.1-82.7-82.7v-627.4c0-45.6 37.1-82.7 82.7-82.7h518.7c45.6 0 82.7 37.1 82.7 82.7V657.8c0 45.6-37.1 82.7-82.7 82.7z m-326.3 7.2H582c26.6 0 48.2-21.6 48.2-48.2s-21.6-48.2-48.2-48.2H444.4c-26.6 0-48.2 21.6-48.2 48.2s21.6 48.2 48.2 48.2z m337-717.3c0-5.8-4.9-10.7-10.7-10.7H252c-5.8 0-10.7 4.9-10.7 10.7V657.8c0 5.8 4.9 10.7 10.7 10.7h76.3c13.7-51.3 60.6-89.3 116.2-89.3H582c55.6 0 102.5 37.9 116.2 89.3h72.5c5.8 0 10.7-4.9 10.7-10.7v-627.4zM666.3 478.4H438.7c-19.9 0-36-16.1-36-36s16.1-36 36-36h227.6c19.9 0 36 16.1 36 36s-16.2 36-36 36zM666.3 302h-306c-19.9 0-36-16.1-36-36s16.1-36 36-36h306c19.9 0 36 16.1 36 36s-16.2 36-36 36z"  horiz-adv-x="1024" />

    
    <glyph glyph-name="cl-icon-Calculation" unicode="&#58930;" d="M251.6 640.8V772.2c0 19.9-16.1 36-36 36s-36-16.1-36-36v-131.4c-58.8-15.9-102.3-69.7-102.3-133.5s43.4-117.6 102.3-133.5v-379c0-19.9 16.1-36 36-36s36 16.1 36 36v379c58.8 15.9 102.3 69.7 102.3 133.5s-43.4 117.6-102.3 133.5z m-36-199.8c-36.5 0-66.3 29.7-66.3 66.3s29.7 66.3 66.3 66.3 66.3-29.7 66.3-66.3-29.7-66.3-66.3-66.3zM949.4 444.5c0 63.8-43.4 117.6-102.3 133.5V772.2c0 19.9-16.1 36-36 36s-36-16.1-36-36v-194.1c-58.8-15.9-102.3-69.7-102.3-133.5S716.2 326.9 775.1 311v-316.2c0-19.9 16.1-36 36-36s36 16.1 36 36V311c58.8 15.9 102.3 69.7 102.3 133.5z m-138.3-66.2c-36.5 0-66.3 29.7-66.3 66.3s29.7 66.3 66.3 66.3 66.3-29.7 66.3-66.3-29.8-66.3-66.3-66.3zM548.1 311.9V772.2c0 19.9-16.1 36-36 36s-36-16.1-36-36v-460.3c-58.8-15.9-102.3-69.7-102.3-133.5s43.4-117.6 102.3-133.5v-50.1c0-19.9 16.1-36 36-36s36 16.1 36 36v50.1c58.8 15.9 102.3 69.7 102.3 133.5S606.9 296 548.1 311.9z m-27.7-199.3c-2.7 0.6-5.4 1-8.3 1-2.8 0-5.6-0.3-8.3-1-32.7 4.1-58 32-58 65.7 0 36.5 29.7 66.3 66.3 66.3s66.3-29.7 66.3-66.3c0-33.7-25.4-61.6-58-65.7z"  horiz-adv-x="1024" />

    
    <glyph glyph-name="cl-icon-CheckMark" unicode="&#58931;" d="M378.8 81.7c-9.5 0-18.7 3.8-25.5 10.5L87.5 358.1c-14.1 14.1-14.1 36.9 0 50.9 14.1 14.1 36.9 14.1 50.9 0l240.4-240.4 508.7 508.7c14.1 14.1 36.9 14.1 50.9 0 14.1-14.1 14.1-36.9 0-50.9L404.3 92.3c-6.8-6.8-15.9-10.6-25.5-10.6z"  horiz-adv-x="1024" />

    
    <glyph glyph-name="cl-icon-Close" unicode="&#58932;" d="M909.5-50.8c-9.2 0-18.4 3.5-25.5 10.5l-800 800c-14 14.1-14 36.9 0.1 50.9 14.1 14.1 36.9 14.1 50.9 0l800-800c14.1-14.1 14.1-36.9 0-50.9-7-7-16.2-10.5-25.5-10.5zM109.5-50.8c-9.2 0-18.4 3.5-25.5 10.5-14.1 14.1-14.1 36.9 0 50.9l800 800c14.1 14.1 36.9 14.1 50.9 0 14.1-14.1 14.1-36.9 0-50.9l-800-800c-6.9-7-16.1-10.5-25.4-10.5z"  horiz-adv-x="1024" />

    
    <glyph glyph-name="cl-icon-Catalog" unicode="&#58933;" d="M113 576.5h800c19.9 0 36 16.1 36 36s-16.1 36-36 36H113c-19.9 0-36-16.1-36-36s16.1-36 36-36zM913 419.3H113c-19.9 0-36-16.1-36-36s16.1-36 36-36h800c19.9 0 36 16.1 36 36s-16.1 36-36 36zM560.7 190.1H113c-19.9 0-36-16.1-36-36s16.1-36 36-36h447.7c19.9 0 36 16.1 36 36s-16.1 36-36 36z"  horiz-adv-x="1024" />

    
    <glyph glyph-name="cl-icon-Book" unicode="&#58934;" d="M954.7 9.2l-141.4 802-224.4-39.6H77v-814.3h521.8V318.5l63.6-360.8 292.3 51.5z m-233.9 31.9L696 181.6l150.5 26.5 24.8-140.5-150.5-26.5z m-81.6 462.3l150.5 26.5L834 279l-150.5-26.5-44.3 250.9z m115.7 224.3l22.4-126.9-150.5-26.5-22.4 126.9 150.5 26.5zM149 498.7h152.9V244H149V498.7z m224.9 0h152.9V244H373.9V498.7z m152.8 200.9v-128.9H373.9V699.6h152.8z m-224.8 0v-128.9H149V699.6h152.9zM149 29.3V172h152.9v-142.7H149z m224.9 0V172h152.9v-142.7H373.9z"  horiz-adv-x="1024" />

    
    <glyph glyph-name="cl-icon-Add" unicode="&#58935;" d="M867.7 818.8H149.3c-42.3 0-76.8-34.5-76.8-76.8v-718.4c0-42.3 34.5-76.8 76.8-76.8h718.4c42.3 0 76.8 34.5 76.8 76.8V742c0 42.3-34.5 76.8-76.8 76.8z m4.8-795.2c0-2.6-2.2-4.8-4.8-4.8H149.3c-2.6 0-4.8 2.2-4.8 4.8V742c0 2.6 2.2 4.8 4.8 4.8h718.4c2.6 0 4.8-2.2 4.8-4.8v-718.4zM636.7 664.9H391v-157H234v-245.7h157v-157h245.7v157h157V507.8h-157V664.9z m85.1-229.1v-101.7h-157v-157H463v157H306V435.8h157v157h101.7v-157h157.1z"  horiz-adv-x="1024" />

    
    <glyph glyph-name="cl-icon-DesktopComputer" unicode="&#58936;" d="M906.9 811.9h-796c-21 0-38-17-38-38V184c0-21 17-38 38-38h229.5L280 3.7c-4.7-11.1-3.6-23.9 3.1-33.9 6.7-10.1 17.9-16.1 30-16.1H691c12.1 0 23.4 6.1 30 16.1 6.7 10.1 7.8 22.8 3.1 33.9L663.7 146H907c21 0 38 17 38 38V773.9c-0.1 20.9-17.1 38-38.1 38z m-34-72V383h-728V739.9h728zM636.5 25.7h-269L418.7 146h166.8l51-120.3zM609.3 218H144.9v93h728v-93H609.3z"  horiz-adv-x="1024" />

    
    <glyph glyph-name="cl-icon-Details" unicode="&#58937;" d="M910.2 554c-22 51.9-53.4 98.5-93.4 138.6-40 40-86.7 71.5-138.6 93.4-53.8 22.7-110.9 34.3-169.7 34.3S392.6 808.8 338.8 786c-51.9-22-98.5-53.4-138.6-93.4-40-40-71.5-86.7-93.4-138.6C84 500.2 72.5 443.1 72.5 384.2c0-58.8 11.5-115.9 34.3-169.7 22-51.9 53.4-98.5 93.4-138.6 40-40 86.7-71.5 138.6-93.4 53.8-22.7 110.9-34.3 169.7-34.3s115.9 11.5 169.7 34.3c51.9 22 98.5 53.4 138.6 93.4 40 40 71.5 86.7 93.4 138.6 22.7 53.8 34.3 110.9 34.3 169.7 0 58.9-11.5 116-34.3 169.8zM765.9 127c-68.8-68.8-160.2-106.7-257.4-106.7s-188.6 37.9-257.4 106.6C182.4 195.7 144.5 287 144.5 384.2s37.9 188.6 106.6 257.4 160.2 106.6 257.4 106.6 188.6-37.9 257.4-106.6c68.8-68.8 106.6-160.2 106.6-257.4S834.6 195.7 765.9 127zM508.5 465.2c-19.9 0-36-16.1-36-36V224c0-19.9 16.1-36 36-36s36 16.1 36 36V429.2c0 19.9-16.1 36-36 36zM508.5 580.5c-19.9 0-36-16.1-36-36s16.1-36 36-36 36 16.1 36 36-16.1 36-36 36z"  horiz-adv-x="1024" />

    
    <glyph glyph-name="cl-icon-Collection" unicode="&#58938;" d="M869.1 703.3c-50.4 50.4-117.4 78.2-188.7 78.2-62.8 0-125.6-22.1-173.2-60.2-37.8 22-111 60.2-165 60.2-71.3 0-138.3-27.8-188.7-78.2-50.5-50.4-78.3-117.4-78.3-188.7v-4.3c0-67.6 23-137.2 68.3-206.7 35-53.7 83.5-107.6 144-160.2 101.9-88.6 202.3-143 206.6-145.3 5.3-2.9 11.2-4.3 17.1-4.3 5.9 0 11.7 1.4 17.1 4.3 4.2 2.3 104.7 56.7 206.6 145.3 60.6 52.7 109 106.6 144 160.2 45.4 69.5 68.3 139.1 68.3 206.7v4.3c0 71.3-27.7 138.3-78.1 188.7z m6.1-193c0-53.3-18.9-109.4-56.3-166.8-31.2-48-75-96.7-130.3-144.9-72.1-62.9-145.2-108.4-177.4-127.3-32 18.8-104.4 63.9-176.4 126.5-55.5 48.3-99.6 97.2-131 145.3-37.6 57.6-56.7 114-56.7 167.4v4.3c0 107.5 87.4 194.9 194.9 194.9 38 0 111.9-38.7 149.5-63.1 14.3-9.3 33.2-7.2 45.2 4.9 35.9 36.4 89.5 58.1 143.5 58.1 107.5 0 194.9-87.4 194.9-194.9v-4.4z"  horiz-adv-x="1024" />

    
    <glyph glyph-name="cl-icon-Bubble" unicode="&#58939;" d="M945.7 442.5C923.8 621.1 760.7 784.2 582 806.1c-61.8 7.6-122.6 2-180.8-16.6-55.6-17.8-106.2-46.6-150.1-85.5-44.1-39-78.9-85.8-103.4-139.1-25.4-55.2-38.3-114.2-38.3-175.4 0-84.9 25-166.3 72.5-236-3.6-9.4-13.1-28.1-33.1-57.8-22.2-32.8-45.6-62.1-58.9-77.3-10.5-11.9-12.6-28.7-5.3-42.8 6.6-12.9 19.7-20.8 34-20.8 1.3 0 2.6 0.1 3.9 0.2 119.9 12.1 351.3 14.5 406.7 14.5 61.2 0 120.2 12.9 175.4 38.3 53.3 24.5 100.1 59.3 139.1 103.4 38.9 44 67.7 94.5 85.5 150.2 18.5 58.4 24.1 119.3 16.5 181.1z m-85.1-159c-14.7-46.1-38.6-88-70.8-124.4-32.4-36.6-71.2-65.4-115.3-85.8-45.7-21-94.6-31.7-145.3-31.7-45.8 0-210.7-1.7-336.6-9 8.5 11.8 16.9 24.1 24.8 36.2 13.2 20.6 23.1 38.3 29.3 52.9 4.8 11.1 17.4 40.7 0.3 64.4-42.9 59.5-65.6 129.8-65.6 203.4 0 50.7 10.7 99.6 31.7 145.3 20.3 44.2 49.2 83 85.8 115.3 36.5 32.3 78.3 56.1 124.4 70.8 34.3 10.9 69.7 16.4 105.8 16.4 14.7 0 29.5-0.9 44.3-2.7 35.3-4.3 70.7-15.7 105.2-33.7 33.8-17.6 65.1-40.8 93.2-68.9s51.2-59.4 68.9-93.2c18-34.5 29.4-69.9 33.7-105.2 6.2-51.3 1.6-101.8-13.8-150.1z"  horiz-adv-x="1024" />

    
    <glyph glyph-name="cl-icon-BookList" unicode="&#58940;" d="M754.2 819.5H147.5v-872h606.7c65 0 117.9 52.9 117.9 117.9V701.6c0 65-52.9 117.9-117.9 117.9z m-534.7-72H359v-728H219.5v728z m580.6-682.1c0-25.3-20.6-45.9-45.9-45.9H431v728h323.2c25.3 0 45.9-20.6 45.9-45.9v-636.2z"  horiz-adv-x="1024" />

    
    <glyph glyph-name="cl-icon-Crowd" unicode="&#58941;" d="M493.9 326.5c42.9 35.3 70.3 88.9 70.3 148.7 0 106.1-86.3 192.5-192.5 192.5s-192.5-86.3-192.5-192.5c0-59.8 27.4-113.3 70.3-148.7-35.8-15.3-68.8-37.5-97.1-65.9C93.9 202 61.7 124.1 61.7 41.3c0-19.9 16.1-36 36-36s36 16.1 36 36c0 63.6 24.8 123.4 69.7 168.4s104.8 69.7 168.4 69.7 123.4-24.8 168.4-69.7c45-45 69.7-104.8 69.7-168.4 0-19.9 16.1-36 36-36s36 16.1 36 36c0 82.8-32.3 160.7-90.8 219.3a311.03 311.03 0 0 1-97.2 65.9zM371.8 595.6c66.4 0 120.5-54 120.5-120.5s-54-120.5-120.5-120.5-120.5 54-120.5 120.5 54 120.5 120.5 120.5zM858.6 244.1c-34.1 34.1-74.7 59.2-119 74.3 4.6 4.3 9 8.9 13.2 13.7 30.6 35 47.5 80 47.5 126.6 0 106.1-86.3 192.5-192.5 192.5-19.9 0-36-16.1-36-36s16.1-36 36-36c66.4 0 120.5-54 120.5-120.5 0-29.2-10.6-57.3-29.7-79.2-19-21.7-45.1-36-73.5-40-19.7-2.8-33.3-21.1-30.5-40.8 2-13.6 11.2-24.3 23.3-28.7 6-4.4 13.4-7 21.4-7 63.6 0 123.4-24.8 168.4-69.7s69.7-104.8 69.7-168.4c0-19.9 16.1-36 36-36s36 16.1 36 36c0 82.7-32.3 160.6-90.8 219.2z"  horiz-adv-x="1024" />

    
    <glyph glyph-name="cl-icon-dialogue" unicode="&#58942;" d="M763 820.4H259.7c-71.6 0-129.8-58.2-129.8-129.8V242c0-71.6 58.2-129.8 129.8-129.8h103.8l116.6-146.4c7.5-9.4 19.1-15 31.1-15h0.8c12.3 0.2 24 6.3 31.3 16.2l106.6 145.1H763c71.6 0 129.8 58.2 129.8 129.8V690.6c0 71.6-58.2 129.8-129.8 129.8zM820.8 242c0-31.9-25.9-57.8-57.8-57.8H633.5c-12.6 0-24.6-6.1-32-16.2l-91.3-124.3-100.1 125.5c-7.6 9.5-18.9 15-31.1 15H259.7c-31.9 0-57.8 25.9-57.8 57.8V690.6c0 31.9 25.9 57.8 57.8 57.8H763c31.9 0 57.8-25.9 57.8-57.8V242z"  horiz-adv-x="1024" />

    
    <glyph glyph-name="cl-icon-DialogueMap" unicode="&#58943;" d="M892.3-29.3c-15.5 0-30.5 6.5-41.4 18.6L759.7 91l-0.6 0.8c-2.7 3.3-6.6 5.2-10.9 5.2H232.1C146.6 97 77 166.5 77 252.1V662.4c0 85.5 69.6 155.1 155.1 155.1h559c85.5 0 155.1-69.6 155.1-155.1v-453.8c0-27.7 1.4-125.3 2.2-181.1 0.3-23.5-13.6-44.3-35.5-52.9-6.7-2.6-13.7-3.9-20.6-3.9z m-15.9 55.8s0-0.1 0 0c0-0.1 0 0 0 0z m-61.9 111.2l61.3-68.3c-0.8 58-1.6 117.8-1.6 139.1V662.4c0 22.1-8.7 42.9-24.4 58.7-15.8 15.8-36.6 24.4-58.7 24.4h-559c-22.1 0-42.9-8.7-58.7-24.4-15.8-15.8-24.4-36.6-24.4-58.7v-410.3c0-22.1 8.7-42.9 24.4-58.7 15.8-15.8 36.6-24.4 58.7-24.4h516.1c25.8 0 49.9-11.4 66.3-31.3zM763.5 522.4H274c-19.9 0-36 16.1-36 36s16.1 36 36 36h489.4c19.9 0 36-16.1 36-36s-16.1-36-35.9-36zM590.1 345.8H274c-19.9 0-36 16.1-36 36s16.1 36 36 36h316c19.9 0 36-16.1 36-36 0.1-19.8-16-36-35.9-36z"  horiz-adv-x="1024" />

    
    <glyph glyph-name="cl-icon-DocumentBook" unicode="&#58944;" d="M873.8 535.8c-2.8 3.5-6.1 6.6-10 8.9L552 821.2H236c-50.4 0-91.3-41-91.3-91.3v-689.3c0-50.4 41-91.3 91.3-91.3h554c50.4 0 91.3 41 91.3 91.3V529.1l-7.5 6.7zM561 717l188.5-167.2H580.4c-10.5 0-19.3 8.9-19.3 19.3V717z m229-695.8H236c-10.5 0-19.3 8.9-19.3 19.3V729.9c0 10.5 8.9 19.3 19.3 19.3h253v-180.1c0-50.4 41-91.3 91.3-91.3h229v-437.2c0.1-10.5-8.8-19.4-19.3-19.4zM332.8 497.8h86.1c19.9 0 36 16.1 36 36s-16.1 36-36 36h-86.1c-19.9 0-36-16.1-36-36s16.1-36 36-36zM661.2 394.1H332.8c-19.9 0-36-16.1-36-36s16.1-36 36-36h328.3c19.9 0 36 16.1 36 36s-16.1 36-35.9 36zM661.2 218.4H332.8c-19.9 0-36-16.1-36-36s16.1-36 36-36h328.3c19.9 0 36 16.1 36 36s-16.1 36-35.9 36z"  horiz-adv-x="1024" />

    
    <glyph glyph-name="cl-icon-Doubt" unicode="&#58945;" d="M908.8 426c-19.9 0-36-16.1-36-36 0-92.9-36.2-180.3-101.9-246-65.7-65.7-153-101.9-246-101.9-45.5 0-210.6-1.7-336.6-9 9 12.5 17.9 25.5 26.1 38.3 31.4 49.2 48.3 87.7 28.4 115.2-42.9 59.5-65.6 129.8-65.6 203.4 0 92.9 36.2 180.3 101.9 246 65.7 65.7 153 101.9 246 101.9 19.9 0 36 16.1 36 36s-16.1 36-36 36c-56.7 0-111.6-11.1-163.4-33-50-21.1-94.9-51.4-133.4-90-38.5-38.5-68.8-83.4-90-133.4-21.9-51.8-33-106.8-33-163.4 0-84.9 25-166.2 72.5-235.9-3.1-8-11.1-25.1-31.8-56-17.6-26.2-40.4-56.4-58.2-76.9-10.7-12.3-12.7-29.6-5.3-44.1 6.9-13.3 20.3-21.4 35.1-21.4 1.3 0 2.6 0.1 3.9 0.2 120.9 11.8 349.1 14.2 403.6 14.2 56.7 0 111.6 11.1 163.4 33 50 21.1 94.9 51.4 133.4 90 38.5 38.5 68.8 83.4 90 133.4 21.9 51.8 33 106.8 33 163.4-0.1 19.9-16.3 36-36.1 36zM655.8 640c19.9 0 36 16.1 36 36 0 34.1 27.7 61.8 61.8 61.8s61.8-27.7 61.8-61.8-27.7-61.8-61.8-61.8c-19.9 0-36-16.1-36-36v-30.8c0-19.9 16.1-36 36-36 19.8 0 35.8 15.9 36 35.7 56.4 15.8 97.8 67.6 97.8 128.9 0 73.8-60 133.8-133.8 133.8s-133.8-60-133.8-133.8c0-19.9 16.2-36 36-36zM751.7 491.4c-19.8 0-36-16.2-36-36s16.2-36 36-36 36 16.2 36 36-16.2 36-36 36z"  horiz-adv-x="1024" />

    
    <glyph glyph-name="cl-icon-Computer" unicode="&#58946;" d="M868.3 774.4H155.7c-43.9 0-79.7-35.8-79.7-79.7v-424.5c0-43.9 35.8-79.7 79.7-79.7H476v-121.8H257.5c-19.9 0-36-16.1-36-36s16.1-36 36-36h488.3c19.9 0 36 16.1 36 36s-16.1 36-36 36H548V190.5h320.3c43.9 0 79.7 35.8 79.7 79.7V694.7c0 43.9-35.8 79.7-79.7 79.7z m7.7-504.2c0-4.2-3.5-7.7-7.7-7.7H155.7c-4.2 0-7.7 3.5-7.7 7.7V694.7c0 4.2 3.5 7.7 7.7 7.7h712.6c4.2 0 7.7-3.5 7.7-7.7v-424.5z"  horiz-adv-x="1024" />

    
    <glyph glyph-name="cl-icon-Down" unicode="&#58947;" d="M896 369c-14.1 14.1-36.9 14.1-50.9 0L548.8 72.6V781.4c0 19.9-16.1 36-36 36s-36-16.1-36-36v-717.3L171.9 369c-14.1 14.1-36.9 14.1-50.9 0-14.1-14.1-14.1-36.9 0-50.9L483-44c7-7 16.2-10.5 25.5-10.5 9.2 0 18.4 3.5 25.5 10.5l4.3 4.3L896 318.1c14.1 14 14.1 36.8 0 50.9z"  horiz-adv-x="1024" />

    
    <glyph glyph-name="cl-icon-Dustbin" unicode="&#58948;" d="M914.3 651.6H701.8V776.9c0 20.5-16.7 37.2-37.2 37.2H390c-20.5 0-37.2-16.7-37.2-37.2v-125.3H140.3c-19.9 0-36-16.1-36-36s16.1-36 36-36h74.1v-477.9c0-88 71.6-159.6 159.6-159.6h306.6c88 0 159.6 71.6 159.6 159.6V579.6h74.1c19.9 0 36 16.1 36 36s-16.1 36-36 36zM424.8 742h204.9v-90.4H424.8V742z m343.5-640.3c0-23.3-9.2-45.2-25.8-61.9-16.6-16.6-38.6-25.8-61.9-25.8H374c-23.3 0-45.2 9.2-61.9 25.8-16.6 16.6-25.8 38.6-25.8 61.9V579.6h481.9v-477.9zM421.2 492.2c-19.9 0-36-16.1-36-36V150c0-19.9 16.1-36 36-36s36 16.1 36 36V456.2c0 19.8-16.2 36-36 36zM625.2 492.2c-19.9 0-36-16.1-36-36V150c0-19.9 16.1-36 36-36s36 16.1 36 36V456.2c0 19.8-16.1 36-36 36z"  horiz-adv-x="1024" />

    
    <glyph glyph-name="cl-icon-FixedLine" unicode="&#58949;" d="M779.6-52.8c-13 0-26.8 0.8-41.3 2.3-37.5 3.9-72.5 12.2-91.2 18.1-58.8 18.7-202.8 115.9-323.6 230.7C182.2 332.7 116.6 500.1 95 565.8l-0.1 0.3c-0.2 0.7-0.7 1.9-1.1 3.4-9.9 36-11.7 70-5.5 101.2 6.3 31.2 20.7 58.3 41.8 78.4 15.5 14.8 45.2 35.6 82.1 49.8 45.3 17.4 90.8 20.8 131.5 9.7 28.9-7.9 53.8-19.2 74.1-33.8 24.8-17.8 43.1-40.4 54.4-67.3v-0.1c9.8-23.6 14.9-45.1 15.6-65.9 0.9-24.5-4.5-47.5-15.9-68.6-8.3-15.2-21.2-29.7-33.7-43.7-11.8-13.2-24-26.8-29.7-38.3-3.8-7.5-2.8-8.9-1.5-10.8 21-30.4 98.8-111.1 108.3-120.2 55.9-53.2 83.1-59.4 94.7-62l0.8-0.2c15.6-3.5 38.4-0.4 58.6 17.5l1.1 5.4 13.3 7.6c30.5 19.8 74 38.9 140.4 14.6 46.5-17 70.3-33.5 97.9-67.9 20.2-25.2 31.7-58.8 34-99.8 1.9-32.6-2.7-60.5-4.7-70.9-1.8-9.3-7.3-37.5-19.4-65.7-16.3-37.9-39.1-63.6-67.7-76.1-22.6-10.1-51.1-15.2-84.7-15.2z m-616.5 642l0.3-0.9c19.9-60.5 80.3-214.6 209.8-337.8 126.4-120.3 257.7-202.2 295.7-214.3 33.6-10.6 122.3-27.4 166.6-8 19.2 8.4 36.1 41.9 45.4 89.6 5.4 28 8.4 83.1-14.8 112-17.9 22.3-30.1 32-66.5 45.4-17.4 6.4-32.1 8.4-45.1 6.2-9.1-1.6-17.9-5.2-28.7-11.9-23.4-23.8-60.1-45.2-102.5-45.2-9.2 0-18.6 1-28.2 3.2l-0.7 0.2c-17.4 3.9-58.2 13.1-128.5 80.1-5.2 4.9-90.5 91.7-117.9 131.4-12.1 17.5-22.6 46.3-3.7 84 10 20.1 26.2 38.1 40.5 54.1 9.7 10.9 19.8 22.1 24.1 30 6.6 12.2 13.5 32.9-2.9 72.6-11.9 28.4-38.4 47.8-81 59.4-18 4.9-47.7 7.6-86.8-7.4-28.9-11.1-50.2-27-58.2-34.7-23.1-22.1-29.4-62.4-16.9-108z"  horiz-adv-x="1024" />

    
    <glyph glyph-name="cl-icon-Letter" unicode="&#58950;" d="M909.3 711.8h-796c-21 0-38-17-38-38v-589.9c0-21 17-38 38-38h796c21 0 38 17 38 38V673.8c0 21-17 38-38 38z m-102.6-72L540.3 373.4c-12.8-12.8-33.6-12.8-46.4 0L227.5 639.8h579.2zM147.3 117.9V618.1L443 322.5c20.4-20.4 47.3-30.7 74.1-30.7 26.8 0 53.7 10.2 74.1 30.7l284.1 284.1v-488.8h-728z"  horiz-adv-x="1024" />

    
    <glyph glyph-name="cl-icon-Export" unicode="&#58951;" d="M914.3 822.1H656.4c-19.9 0-36-16.1-36-36s16.1-36 36-36h168L345.7 271.4c-14.1-14.1-14.1-36.9 0-50.9 7-7 16.2-10.5 25.5-10.5s18.4 3.5 25.5 10.5l481.7 481.7v-174c0-19.9 16.1-36 36-36s36 16.1 36 36V786.1c-0.1 19.8-16.2 36-36.1 36zM782.3 471.6c-19.9 0-36-16.1-36-36V85c0-32.2-26.2-58.4-58.4-58.4H208.7c-15.6 0-30.2 6.1-41.3 17.1-11 11-17.1 25.7-17.1 41.3V530.9c0 32.2 26.2 58.4 58.4 58.4h330.9c19.9 0 36 16.1 36 36s-16.1 36-36 36H208.7c-71.9 0-130.4-58.5-130.4-130.4V85c0-71.9 58.5-130.4 130.4-130.4H688c71.9 0 130.4 58.5 130.4 130.4V435.6c-0.1 19.9-16.2 36-36.1 36z"  horiz-adv-x="1024" />

    
    <glyph glyph-name="cl-icon-Headset" unicode="&#58952;" d="M947 356c-2 52.7-13.4 103.9-33.9 152.4-22 51.9-53.4 98.5-93.4 138.6-40 40-86.7 71.5-138.6 93.4-53.8 22.7-110.9 34.3-169.7 34.3s-115.9-11.5-169.7-34.3c-51.9-22-98.5-53.4-138.6-93.4s-71.5-86.7-93.4-138.6c-20.6-48.5-32-99.7-34-152.4h-0.3v-363.1H201c100.1 0 181.5 81.4 181.5 181.5S301 356 200.9 356h-53.2c4.2 90.7 41.5 175.4 106.2 240.1 68.8 68.8 160.2 106.6 257.4 106.6S700 664.8 768.7 596c64.7-64.7 102-149.4 106.2-240.1h-53.2c-100.1 0-181.5-81.4-181.5-181.5s81.4-181.5 181.5-181.5h125.6V356h-0.3zM278.3 251.7c20.8-20.8 32.2-48.2 32.2-77.3 0-29.1-11.4-56.6-32.2-77.3-20.8-20.8-48.2-32.2-77.3-32.2h-53.6V284H201c29 0 56.5-11.5 77.3-32.3z m597-186.8h-53.6c-29.1 0-56.6 11.4-77.3 32.2s-32.2 48.2-32.2 77.3c0 29.1 11.4 56.6 32.2 77.3s48.2 32.2 77.3 32.2h53.6v-219z"  horiz-adv-x="1024" />

    
    <glyph glyph-name="cl-icon-Home" unicode="&#58953;" d="M850.6 570.5L558.8 804c-13 10.4-29.2 16.1-45.8 16.1-16.6 0-32.9-5.7-45.8-16.1L175.4 570.5c-32.1-25.7-50.6-64.1-50.6-105.2v-374.4c0-73 59.4-132.4 132.4-132.4h511.6c73 0 132.4 59.4 132.4 132.4V465.3c0 41.2-18.4 79.5-50.6 105.2z m-427.4-540V325.8h194.7v-295.3H423.2z m406 60.4c0-33.3-27.1-60.4-60.4-60.4h-78.9V359.8c0 21-17 38-38 38H389.2c-21 0-38-17-38-38v-329.3h-94c-33.3 0-60.4 27.1-60.4 60.4V465.3c0 19.2 8.6 37 23.5 49l291.8 233.5c0.2 0.2 0.5 0.3 0.8 0.3 0.3 0 0.6-0.1 0.8-0.3l291.8-233.5c15-12 23.5-29.8 23.5-49v-374.4z"  horiz-adv-x="1024" />

    
    <glyph glyph-name="cl-icon-Mobile" unicode="&#58954;" d="M759.1 820.6H262.2c-40.8 0-74-33.2-74-74v-724c0-40.8 33.2-74 74-74h496.9c40.8 0 74 33.2 74 74v724c0 40.8-33.2 74-74 74z m2-798c0-1.1-0.9-2-2-2H262.2c-1.1 0-2 0.9-2 2v724c0 1.1 0.9 2 2 2h496.9c1.1 0 2-0.9 2-2v-724zM549.8 217.1h-78.3c-12.3 0-22.3-10-22.3-22.3v-78.3c0-12.3 10-22.3 22.3-22.3h78.3c12.3 0 22.3 10 22.3 22.3v78.3c0 12.4-10 22.3-22.3 22.3z"  horiz-adv-x="1024" />

    
    <glyph glyph-name="cl-icon-Key" unicode="&#58955;" d="M934 679l-40.5 40.5 27 27c14.1 14.1 14.1 36.9 0 50.9-14.1 14.1-36.9 14.1-50.9 0l-176-175.9-284.2-284.2c-35.5 24.4-77.6 37.6-121.6 37.6-57.5 0-111.6-22.4-152.2-63.1-40.7-40.7-63.1-94.7-63.1-152.2 0-57.5 22.4-111.6 63.1-152.2s94.7-63.1 152.2-63.1 111.6 22.4 152.2 63.1 63.1 94.7 63.1 152.2c0 46.6-14.7 90.9-41.9 127.7L719 545.1l89.6-89.6c7-7 16.2-10.5 25.5-10.5s18.4 3.5 25.5 10.5c14.1 14.1 14.1 36.9 0 50.9L770 596l72.6 72.6 40.5-40.5c7-7 16.2-10.5 25.5-10.5s18.4 3.5 25.5 10.5c13.9 14 13.9 36.8-0.1 50.9zM287.8 16.3c-79 0-143.3 64.3-143.3 143.3 0 79 64.3 143.3 143.3 143.3 36.3 0 69.5-13.6 94.8-35.9 1-1.4 2.2-2.7 3.4-3.9 1.6-1.6 3.3-3 5.2-4.3 24.7-25.8 39.9-60.7 39.9-99.1 0-79.1-64.3-143.4-143.3-143.4z"  horiz-adv-x="1024" />

    
    <glyph glyph-name="cl-icon-News" unicode="&#58956;" d="M776.4 328.3V461.8c0 67.1-26.3 130.4-74 178.1-39.2 39.2-88.9 64-142.6 71.5v74.8c0 19.6-15.9 35.5-35.5 35.5s-35.5-15.9-35.5-35.5v-74.8c-53.7-7.6-103.4-32.3-142.6-71.5-47.7-47.7-74-111-74-178.1v-130.2c-61.9-4.6-110.8-56.4-110.8-119.5 0-66.1 53.7-119.8 119.8-119.8h69.6c16.5-80.7 88-141.6 173.6-141.6S681.5 11.6 698 92.3h49.5c66.1 0 119.8 53.7 119.8 119.8-0.2 56.1-38.9 103.2-90.9 116.2zM396.3 589.7c34.3 34.3 79.8 53.2 127.9 53.2 48.1 0 93.6-18.9 127.9-53.2 34.3-34.3 53.2-79.8 53.2-127.9V332H343.1V461.8c0 48.1 18.9 93.5 53.2 127.9z m127.9-568c-46.1 0-85.4 29.5-100 70.6h200.1c-14.7-41.1-54-70.6-100.1-70.6z m223.1 141.7H281c-26.9 0-48.8 21.9-48.8 48.8S254.1 261 281 261h466.3c26.9 0 48.8-21.9 48.8-48.8s-21.9-48.8-48.8-48.8z"  horiz-adv-x="1024" />

    
    <glyph glyph-name="cl-icon-Projection" unicode="&#58957;" d="M930.8 626.4c-11.6 6.3-25.7 5.7-36.8-1.5L709.5 504.6v43.5c0 51-41.5 92.5-92.5 92.5H170.1c-51 0-92.5-41.5-92.5-92.5v-345.5c0-51 41.5-92.5 92.5-92.5H617c51 0 92.5 41.5 92.5 92.5v46L893.7 126c6-4 13-6 19.9-6 5.8 0 11.7 1.4 17 4.3 11.7 6.3 19 18.5 19 31.7V594.7c0 13.2-7.2 25.4-18.8 31.7zM637.5 202.6c0-11.1-9.4-20.5-20.5-20.5H170.1c-11.1 0-20.5 9.4-20.5 20.5V548.1c0 11.1 9.4 20.5 20.5 20.5H617c11.1 0 20.5-9.4 20.5-20.5v-345.5z m240.1 20.5L709.5 335v83.6l168.1 109.6v-305.1z"  horiz-adv-x="1024" />

    
    <glyph glyph-name="cl-icon-ShoppingBox" unicode="&#58958;" d="M946.5 519.1c0 69.1-56.2 125.3-125.3 125.3h-54.9L645.8 805.9c-11.9 15.9-34.4 19.2-50.4 7.3-15.9-11.9-19.2-34.4-7.3-50.4l88.4-118.5H345.4l88.4 118.5c11.9 15.9 8.6 38.5-7.3 50.4-15.9 11.9-38.5 8.6-50.4-7.3L255.6 644.4h-46.7c-69.1 0-125.3-56.2-125.3-125.3 0-58.5 40.3-107.7 94.5-121.5v-360.2c0-49.1 40-89.1 89.1-89.1h501.5c49.1 0 89.1 40 89.1 89.1V399.2c51.3 15.7 88.7 63.5 88.7 119.9zM785.7 37.5c0-9.2-7.8-17.1-17.1-17.1H267.1c-9.2 0-17.1 7.8-17.1 17.1V393.8h535.6v-356.3z m35.5 428.3H208.9c-29.4 0-53.3 23.9-53.3 53.3s23.9 53.3 53.3 53.3h612.4c29.4 0 53.3-23.9 53.3-53.3-0.1-29.4-24-53.3-53.4-53.3zM431.2 100.5c19.9 0 36 16.1 36 36V281.8c0 19.9-16.1 36-36 36s-36-16.1-36-36v-145.3c0-19.9 16.1-36 36-36zM604.6 100.5c19.9 0 36 16.1 36 36V281.8c0 19.9-16.1 36-36 36s-36-16.1-36-36v-145.3c0-19.9 16.1-36 36-36z"  horiz-adv-x="1024" />

    
    <glyph glyph-name="cl-icon-Personal" unicode="&#58959;" d="M885.9 142.7c-20.6 48.8-50.2 92.6-87.8 130.2-37.6 37.6-81.4 67.1-130.2 87.8-5 2.1-10.1 4.1-15.2 6.1 11.3 8 22 17.1 32 27.1 47.1 47.1 73 109.7 73 176.3s-25.9 129.2-73 176.3-109.7 73-176.3 73-129.2-25.9-176.3-73-73-109.7-73-176.3 25.9-129.2 73-176.3c10-10 20.7-19 32-27.1-5.1-1.9-10.1-3.9-15.2-6.1-48.8-20.6-92.6-50.2-130.2-87.8-37.6-37.6-67.1-81.4-87.8-130.2-21.4-50.5-32.2-104.2-32.2-159.4 0-19.9 16.1-36 36-36s36 16.1 36 36c0 90.2 35.1 174.9 98.9 238.7 63 63 146.4 98 235.3 98.8h6.8c89.1-0.8 172.5-35.8 235.5-98.8 63.8-63.8 98.9-148.5 98.9-238.7 0-19.9 16.1-36 36-36s36 16.1 36 36c0 55.3-10.9 108.9-32.2 159.4zM331.2 570c0 97.7 79.5 177.3 177.3 177.3S685.8 667.8 685.8 570c0-96.3-77.2-174.9-172.9-177.2h-8.8c-95.7 2.4-172.9 81-172.9 177.2z"  horiz-adv-x="1024" />

    
    <glyph glyph-name="cl-icon-Paper" unicode="&#58960;" d="M887 505.2v0.7c0 0.7-0.1 1.4-0.1 2.1v0.3c-0.1 0.8-0.2 1.7-0.3 2.5v0.3c-0.3 1.7-0.7 3.4-1.3 5-0.6 1.7-1.2 3.3-2 4.8 0 0.1-0.1 0.1-0.1 0.2-0.8 1.5-1.6 2.9-2.6 4.3-0.1 0.1-0.2 0.3-0.3 0.4-0.5 0.6-1 1.3-1.5 1.9-0.1 0.1-0.2 0.2-0.2 0.3-0.5 0.6-1 1.1-1.5 1.6-0.1 0.1-0.2 0.2-0.3 0.4-0.6 0.6-1.2 1.1-1.8 1.7l-0.1 0.1-315 276.7c-0.1 0.1-0.2 0.1-0.2 0.2-0.5 0.5-1.1 0.9-1.7 1.4-0.1 0-0.1 0.1-0.2 0.1-0.6 0.5-1.3 0.9-2 1.4-0.1 0.1-0.2 0.1-0.3 0.2-1.4 0.9-2.8 1.7-4.3 2.4 0 0-0.1 0-0.1 0.1-2.3 1-4.6 1.8-7.1 2.4h-0.1c-1.5 0.3-3.1 0.6-4.7 0.7h-0.5c-0.6 0-1.3 0.1-1.9 0.1h-0.4-271.1c-71.4 0-129.5-58.1-129.5-129.5v-613.1c0-71.4 58.1-129.5 129.5-129.5h492.4c71.4 0 129.5 58.1 129.5 129.5V504.7c-0.2 0.2-0.2 0.3-0.2 0.5zM572.1 701.9l183.4-161.1H572.1V701.9z m185.4-684.5H265.1c-31.7 0-57.5 25.8-57.5 57.5V688c0 31.7 25.8 57.5 57.5 57.5h235v-240.7c0-19.9 16.1-36 36-36H815V75c0-31.8-25.8-57.6-57.5-57.6z"  horiz-adv-x="1024" />

    
    <glyph glyph-name="cl-icon-Pencil" unicode="&#58961;" d="M945.1 571.1c0 11.1-4.3 21.5-12.1 29.3l-204 204c-7.8 7.8-18.2 12.1-29.3 12.1-11.1 0-21.5-4.3-29.3-12.1L87.7 221.7c-8.8-8.8-13.2-21.1-11.9-33.5l19-185c2-19.4 17.5-34.9 36.9-36.9l185-19c1.4-0.1 2.9-0.2 4.3-0.2 10.9 0 21.4 4.3 29.2 12.1l489.7 489.7 93 93c7.9 7.8 12.2 18.2 12.2 29.2zM309.6 20.4l-145.8 15-15 145.8 454 453.8 160.7-160.7-453.9-453.9z m504.9 504.8L653.7 685.9l45.9 45.9 160.7-160.7-45.8-45.9z"  horiz-adv-x="1024" />

    
    <glyph glyph-name="cl-icon-Trophy" unicode="&#58962;" d="M780.7 732.9V821.3h-518V733H92.5v-85.5c0-64.8 21.3-124.8 59.9-169.1 41-46.9 98.9-72.8 163-72.8v0.4c7.1-9.3 14.9-18.3 23.3-26.7 38.5-38.5 86.9-63.4 139.2-72.4v-75.2c-100-5.7-179.6-88.9-179.6-190.3v-92.2h429.4v92.2c0 100.8-78.6 183.6-177.8 190.2v73.1c58.3 6.3 112.4 32.2 154.7 74.5 8.4 8.4 16.2 17.3 23.3 26.6 58.9 3.3 111.6 28.7 149.8 72.4 38.6 44.2 59.9 104.3 59.9 169.1v85.5H780.7zM206.6 525.7c-27.2 31.1-42.1 74.3-42.1 121.7v13.5h98.2v-98.7c0-27.4 4.3-54.2 12.5-79.6-26.7 7.2-50 21.7-68.6 43.1z m449.1-484.2v-20.2H370.3v20.2c0 31.5 12.4 61.3 34.9 83.8s52.2 34.9 83.8 34.9h48.1c31.5 0 61.3-12.4 83.8-34.9 22.4-22.6 34.8-52.3 34.8-83.8z m53 520.8c0-49.7-19.5-96.6-55-132.1-35.4-35.4-82.3-55-132.1-55-49.7 0-96.6 19.5-132.1 55-35.4 35.4-55 82.3-55 132.1v187h374v-187z m156.9 85.1c0-47.4-15-90.6-42.1-121.7-15.1-17.3-33.2-30.1-53.7-38.1 7.2 23.9 11 49 11 74.7V661h84.9v-13.6z"  horiz-adv-x="1024" />

    
    <glyph glyph-name="cl-icon-Star" unicode="&#58963;" d="M754.6-32.8c-7 0-14 1.7-20.5 5.1L512.2 89 290.3-27.7c-14.9-7.8-32.6-6.5-46.2 3.3-13.6 9.9-20.3 26.3-17.5 42.9L269 265.7l-179.5 175c-12 11.7-16.3 29-11.1 45 5.2 16 18.8 27.4 35.4 29.9l248.1 36.1 111 224.8c7.4 15.1 22.5 24.5 39.3 24.5s31.9-9.4 39.3-24.5l111-224.8 248.1-36.1c16.6-2.4 30.2-13.9 35.4-29.9 5.2-16 0.9-33.2-11.1-45l-179.5-175 42.4-247.1c2.8-16.6-3.8-33-17.5-42.9-7.6-5.7-16.6-8.5-25.7-8.5z m-574 485.2l149.3-145.6c10.3-10.1 15.1-24.6 12.6-38.8l-35.2-205.5 184.6 97c12.8 6.7 28 6.7 40.8 0l184.6-97L682 268.1a44.07 44.07 0 0 0 12.6 38.8l149.3 145.6-206.4 30c-14.3 2.1-26.6 11-33 24l-92.3 187-92.3-187c-6.4-12.9-18.7-21.9-33-24l-206.3-30.1z m719.7-8.2z"  horiz-adv-x="1024" />

    
    <glyph glyph-name="cl-iconcurriculum" unicode="&#58964;" d="M226.1 819.3c-42.1 0-76.3-34.2-76.3-76.3v-719.2c0-42.2 34.3-76.5 76.5-76.5h648.1v872H226.1z m0-72h576.2v-464.6H221.7V743c0 2.4 2 4.3 4.4 4.3z m0.1-728c-2.5 0-4.5 2-4.5 4.5V210.7h580.6v-191.4H226.2zM383.5 589.4h252.1c19.9 0 36 16.1 36 36s-16.1 36-36 36H383.5c-19.9 0-36-16.1-36-36s16.1-36 36-36z"  horiz-adv-x="1024" />

    
    <glyph glyph-name="cl-icon-Smiling" unicode="&#58965;" d="M910.2 551.2c-22 51.9-53.4 98.5-93.4 138.6-40 40-86.7 71.5-138.6 93.4-53.8 22.7-110.9 34.3-169.7 34.3S392.6 806 338.8 783.2c-51.9-22-98.5-53.4-138.6-93.4s-71.5-86.7-93.4-138.6C84 497.4 72.5 440.3 72.5 381.4S84 265.5 106.8 211.7c22-51.9 53.4-98.5 93.4-138.6 40-40 86.7-71.5 138.6-93.4 53.8-22.7 110.9-34.3 169.7-34.3s115.9 11.5 169.7 34.3c51.9 22 98.5 53.4 138.6 93.4 40 40 71.5 86.7 93.4 138.6 22.7 53.8 34.3 110.9 34.3 169.7s-11.5 116-34.3 169.8zM765.9 124c-68.8-68.8-160.2-106.6-257.4-106.6-97.2 0-188.6 37.9-257.4 106.6-68.8 68.8-106.6 160.2-106.6 257.4S182.4 570 251.1 638.8c68.8 68.8 160.2 106.6 257.4 106.6 97.2 0 188.6-37.9 257.4-106.6 68.8-68.8 106.6-160.2 106.6-257.4S834.6 192.8 765.9 124zM349.361197 442.037982a37.5 37.5 0 1 1 53.032083 53.033934 37.5 37.5 0 1 1-53.032083-53.033934ZM626.3 468.6m-37.5 0a37.5 37.5 0 1 1 75 0 37.5 37.5 0 1 1-75 0ZM661.9 331.8c-15.1 12.9-37.8 11.2-50.8-3.9-7.1-8.2-35.5-36-72.4-54.5-41.5-20.9-83.1-29.9-83.7-30-19.4-4.1-31.9-23.2-27.8-42.6 3.6-17 18.5-28.6 35.2-28.6 2.4 0 4.9 0.2 7.4 0.8 2.1 0.4 51 10.8 101.3 36.1 57.4 28.9 93.2 70.2 94.7 72 13 15 11.2 37.7-3.9 50.7z"  horiz-adv-x="1024" />

    
    <glyph glyph-name="cl-icon-Refresh" unicode="&#58966;" d="M857.8 166.7v16.7c0 19.9-16.1 36-36 36H624.3c-19.9 0-36-16.1-36-36s16.1-36 36-36h138.2C699.2 77.2 608.9 36.5 513 36.5c-89.8 0-174.2 35-237.7 98.4-63.5 63.5-98.4 147.9-98.4 237.7 0 10.1 0.5 20.3 1.3 30.3 1.8 19.8-12.9 37.3-32.7 39.1-19.8 1.8-37.3-12.9-39.1-32.7-1.1-12.1-1.6-24.5-1.6-36.8 0-55.1 10.8-108.5 32.1-158.9 20.6-48.6 50-92.2 87.4-129.7 37.5-37.5 81.1-66.9 129.7-87.4 50.3-21.3 103.8-32.1 158.9-32.1 102 0 198.7 37.9 272.8 104.5v-83.1c0-19.9 16.1-36 36-36s36 16.1 36 36V163.2c0.1 1.1 0.1 2.3 0.1 3.5zM889 531.5c-20.6 48.6-50 92.2-87.4 129.7-37.5 37.5-81.1 66.9-129.7 87.4-50.3 21.3-103.8 32.1-158.9 32.1-66.1 0-131.8-16.2-190-46.8-35.6-18.7-68.3-42.8-97-71.1V785.9c0 19.9-16.1 36-36 36s-36-16.1-36-36v-197.5c0-19.9 16.1-36 36-36h197.5c19.9 0 36 16.1 36 36s-16.1 36-36 36h-97.2c20.2 17.8 42.4 33.3 66.2 45.8 47.8 25.2 101.9 38.5 156.4 38.5 89.8 0 174.2-35 237.7-98.4 63.5-63.5 98.4-147.9 98.4-237.7 0-19.9 16.1-36 36-36s36 16.1 36 36c0.1 55.1-10.7 108.5-32 158.9z"  horiz-adv-x="1024" />

    
    <glyph glyph-name="cl-icon-Square" unicode="&#58967;" d="M907.8 803H109.2c-20.3 0-36.7-16.5-36.7-36.7v-772.4c0-20.3 16.5-36.7 36.7-36.7h798.5c20.3 0 36.7 16.5 36.7 36.7V766.3c0.1 20.2-16.4 36.7-36.6 36.7z m-35.3-266.7H671.1V731h201.4v-194.7z m-458-249.8V464.3H599v-177.8H414.5z m184.6-72v-185.4H414.5V214.5h184.6z m-256.6 72h-198V464.3h198v-177.8z m72 249.8V731H599v-194.7H414.5z m256.6-72h201.4v-177.8H671.1V464.3zM342.5 731v-194.7h-198V731h198z m-198-516.5h198v-185.4h-198V214.5z m526.6-185.4V214.5h201.4v-185.4H671.1z"  horiz-adv-x="1024" />

    


  </font>
</defs>
</svg>
