<?xml version="1.0" standalone="no"?><!DOCTYPE svg PUBLIC "-//W3C//DTD SVG 1.1//EN" "http://www.w3.org/Graphics/SVG/1.1/DTD/svg11.dtd"><svg t="1492159445505" class="icon" style="" viewBox="0 0 1024 1024" version="1.1" xmlns="http://www.w3.org/2000/svg" p-id="2930" xmlns:xlink="http://www.w3.org/1999/xlink" width="200" height="200"><defs><style type="text/css"></style></defs><path d="M512 0C229.229985 0 0 229.228089 0 512c0 282.768119 229.229985 512 512 512 282.771911 0 512-229.231881 512-512C1024 229.228089 794.770015 0 512 0zM512 986.074074c-261.82163 0-474.074074-212.250548-474.074074-474.074074S250.176474 37.925926 512 37.925926c261.823526 0 474.074074 212.250548 474.074074 474.074074S773.82163 986.074074 512 986.074074z" p-id="2931"></path><path d="M312.888889 407.703704m-66.37037 0a35 35 0 1 0 132.740741 0 35 35 0 1 0-132.740741 0Z" p-id="2932"></path><path d="M711.111111 407.703704m-66.37037 0a35 35 0 1 0 132.740741 0 35 35 0 1 0-132.740741 0Z" p-id="2933"></path><path d="M272.090074 625.777778C297.773511 734.498133 395.43277 815.407407 512 815.407407s214.226489-80.909274 239.909926-189.62963L272.090074 625.777778z" p-id="2934"></path></svg>