<?xml version="1.0" standalone="no"?><!DOCTYPE svg PUBLIC "-//W3C//DTD SVG 1.1//EN" "http://www.w3.org/Graphics/SVG/1.1/DTD/svg11.dtd"><svg t="1526316594164" class="icon" style="" viewBox="0 0 1024 1024" version="1.1" xmlns="http://www.w3.org/2000/svg" p-id="1455" xmlns:xlink="http://www.w3.org/1999/xlink" width="200" height="200"><defs><style type="text/css"></style></defs><path d="M705.9 186.1c-15-0.4-27.7 10.8-29.5 25.6 9.6 10.3 18.7 21.2 27.1 32.6h0.7c15.9 0.5 29.2-12.2 29.7-28.3s-12.1-29.5-28-29.9z" fill="#CF0B11" p-id="1456"></path><path d="M675.6 212.1l-2.7-0.9c1.2-3.5 2.3-7 4.6-11.1 2.2-4 5.4-8.6 8.5-13l2.3 1.6c-3.1 4.4-6.2 8.9-8.3 12.8-2.1 3.8-3.2 7.1-4.4 10.6z" fill="#870002" p-id="1457"></path><path d="M314.2 181.7c15.4-0.4 28.4 11.2 30.2 26.4-9.9 10.6-19.2 21.7-27.8 33.3h-0.7c-16.3 0.4-29.9-12.6-30.3-29.1-0.6-16.4 12.3-30.1 28.6-30.6z" fill="#CF0B11" p-id="1458"></path><path d="M345.2 209.8c-0.4-2.9-0.7-5.7-2.8-9.8-2.1-4.2-6.1-9.9-9.9-15.4l2.3-1.6c3.9 5.6 7.9 11.4 10.1 15.8 2.3 4.5 2.7 7.7 3.1 10.7l-2.8 0.3z" fill="#870002" p-id="1459"></path><path d="M411.8 953.1c0.1-0.2 0.1-0.4 0.2-0.6 0.1-0.4 0.2-0.9 0.3-1.3-53.6-10.1-102.1-29.2-143.4-52.9-0.6 0.3-1.3 0.6-1.9 0.8-82.6-47.3-136.7-112.8-146.4-160.7-0.3-1.3-0.5-2.6-0.7-3.8 0.5-0.5 1-1 1.6-1.5-12.5-70.9 17.9-155.2 26.7-181.5 0.8-0.1 1.6-0.2 3.3-1.9 1.7-1.7 4.1-5 6.1-9.3 2-4.3 3.4-9.5 4.9-14.8 0-102.4 37.4-195.2 97.9-262.2-2.2 0.4-4.5 0.1-6.7-0.7-2-0.8-3.8-2-5.1-3.5 2.6 0.7 5.2 1.2 7.8 1.5 11.1 1.4 21.5 0 34.5-10.8s28.6-30.9 45.6-45.2c17.1-14.2 35.7-22.5 49.2-28s21.8-8.2 36.9-11.3c15-3.1 36.8-6.6 56.2-8 19.4-1.4 36.5-0.9 51.7-0.3l2.3 0.1c27.3 3.3 53.7 10.3 78.7 20.5 3.2 1.6 6.5 3.3 9.8 5 17 8.8 35.1 19 48.5 28.8 13.4 9.8 26.5 16.9 34.3 24.2 7.7 7.3 10 14.8 20 20.1 10.1 5.4 23.4 11.1 46.3 8.8 0.6-0.1 1.2-0.1 1.7-0.2l-3.6 14.9c-1.1 4.6-4.4 8-8.9 9.4-2.2 0.7-4.5 0.7-6.6 0.3 47.3 63.2 76 144.2 76.9 232.6 0.6 4.3 1.2 8.6 2.5 11.6s3.4 4.6 5.3 6.7c1.9 2.1 3.5 4.5 5.1 7 7.1 19.7 55.6 125.3 37.4 202.3-11.3 47.9-56.4 100.5-124.1 141-4.2 2.5-8.5 5-12.9 7.5h-0.1c-37.7 20.9-81.8 38-130.4 48.9 0.2 0.4 0.4 0.8 0.5 1.2-4.1 0.1-8.6 1-13.7 2-11.7 2.3-26.7 4.8-44.2 6.8-17.5 2-37.4 3.3-56 3.6-18.7 0.3-36.1-0.4-53.6-2.2-12.3-1.2-24.5-3-34.1-3.6l0.2-0.9c-0.1-0.3 0-0.3 0-0.4z m189.8-108.8l1.5-12.4 1.5-12.4-11.5 4.9-11.5 4.9 10 7.5 10 7.5z m-166.7-4.6l9.2-8.4-11.9-3.7-11.9-3.7L423 836l2.7 12.2 9.2-8.5z m-98.7-36c0-58.6-55.1-106.1-123-106.1-36.5 0-69.3 13.7-91.8 35.5 0.3 1.5 0.5 2.9 0.8 4.4 9.7 48 64 113.5 146.7 160.8 39.9-17.5 67.3-53.3 67.3-94.6zM743 897.4c4.4-2.4 8.7-4.9 13-7.5 66.8-40.4 111.2-92.5 122.5-140 2-8.3 3.1-16.9 3.7-25.8-21.7-16.5-50.2-26.5-81.4-26.5-67.9 0-123 47.5-123 106.1-0.1 40.6 26.3 75.9 65.2 93.7z" fill="#FFFFFF" p-id="1460"></path><path d="M829.7 528.4c-1.6 0-2.8-1.3-2.8-2.8 0-202.8-148.4-367.8-330.8-367.8s-330.8 165-330.8 367.8c0 1.6-1.3 2.8-2.8 2.8s-2.8-1.3-2.8-2.8c0-99.7 35-193.5 98.5-264 30.9-34.3 66.9-61.3 107-80.1 41.5-19.5 85.6-29.4 131.1-29.4s89.6 9.9 131.1 29.4c40.1 18.8 76.1 45.8 107 80.1 63.5 70.5 98.5 164.3 98.5 264-0.4 1.5-1.7 2.8-3.2 2.8z" fill="#7F2B2E" p-id="1461"></path><path d="M492.6 157.8c-1.2 0-2.3-0.8-2.7-1.9-2.7-8.1-5.5-16.5-5.8-26.9-0.2-8.9 1.4-21.9 10.2-33.7 8.4-11.1 22.3-20 36.3-23.1 14.3-3.1 28.9-0.4 43 2.3 1.5 0.3 2.5 1.8 2.3 3.3-0.3 1.5-1.8 2.5-3.3 2.3-14.2-2.7-27.6-5.3-40.7-2.4-12.6 2.8-25.5 11-33 20.9-7.9 10.4-9.3 22.1-9.1 30.1 0.2 9.5 2.8 17.1 5.5 25.2 0.5 1.5-0.3 3.1-1.8 3.6-0.3 0.2-0.6 0.3-0.9 0.3z" fill="#7F2B2E" p-id="1462"></path><path d="M591.3 83.4m-19.1 0a19.1 19.1 0 1 0 38.2 0 19.1 19.1 0 1 0-38.2 0Z" fill="#FF9000" p-id="1463"></path><path d="M591.3 105.4c-12.1 0-22-9.9-22-22s9.9-22 22-22 22 9.9 22 22-9.9 22-22 22z m0-38.3c-9 0-16.3 7.3-16.3 16.3s7.3 16.3 16.3 16.3 16.3-7.3 16.3-16.3-7.3-16.3-16.3-16.3z" fill="#7F2B2E" p-id="1464"></path><path d="M266.9 899.1c41-17.2 69.3-53.5 69.3-95.5 0-58.6-55.1-106.1-123-106.1-37.4 0-70.8 14.4-93.4 37 0.2 1.3 0.5 2.6 0.7 3.8 9.7 48.1 63.8 113.5 146.4 160.8zM800.7 697.6c-67.9 0-123 47.5-123 106.1 0 40.6 26.5 75.9 65.4 93.8 74-41.3 123.4-97 135.3-147.5 2-8.3 3.1-16.9 3.7-25.8-21.7-16.6-50.2-26.6-81.4-26.6z" fill="#FF7F99" p-id="1465"></path><path d="M496 961.9c-91.2 0-183-28.3-258.5-79.8-31.8-21.7-59.6-46.8-80.6-72.8-20.2-25-33.1-49.6-37.5-71.2-14-69.1 14-151.9 24.5-183 1.8-5.2 3.4-10.1 3.6-11.3-0.1-1.4 1-2.7 2.4-2.9 1.6-0.2 3 0.8 3.2 2.4 0.2 1.5-0.4 3.4-3.9 13.7-10.4 30.8-38.1 112.5-24.3 180.1 8.8 43.4 54.3 98.6 115.8 140.5 74.6 50.8 165.2 78.8 255.3 78.8 92.7 0 184.5-24.4 258.5-68.7 65.5-39.3 111.4-91.3 122.7-139.2 15.9-67.4-20-157-33.5-190.8-4.5-11.1-5.1-12.8-4.9-14.4 0.2-1.5 1.7-2.6 3.2-2.4 1.4 0.2 2.4 1.4 2.4 2.8 0.3 1.3 2.3 6.4 4.5 11.8 13.7 34.2 50.1 125 33.7 194.2-11.7 49.4-58.5 102.7-125.4 142.8-74.6 44.7-167.5 69.4-261.2 69.4zM147.5 544z m697 0z m0-0.5z" fill="#7F2B2E" p-id="1466"></path><path d="M271.897183 618.272463a41.3 41.3 0 1 0 58.406001-58.40804 41.3 41.3 0 1 0-58.406001 58.40804Z" fill="#672610" p-id="1467"></path><path d="M301.1 633.2c-24.3 0-44.1-19.8-44.1-44.1s19.8-44.1 44.1-44.1 44.1 19.8 44.1 44.1-19.8 44.1-44.1 44.1z m0-82.6c-21.2 0-38.4 17.2-38.4 38.4s17.2 38.4 38.4 38.4 38.4-17.2 38.4-38.4-17.2-38.4-38.4-38.4z" fill="#7F2B2E" p-id="1468"></path><path d="M259 763.1c-95.9 0-174-78.1-174-174s78.1-174 174-174 174 78.1 174 174-78.1 174-174 174z m0-325.3c-83.4 0-151.3 67.9-151.3 151.3S175.5 740.4 259 740.4c83.4 0 151.3-67.9 151.3-151.3S342.4 437.8 259 437.8z" fill="#7F2B2E" p-id="1469"></path><path d="M471.8 581h90.6c4.5 0 8.1 3.6 8.1 8.1s-3.6 8.1-8.1 8.1h-90.6c-4.5 0-8.1-3.6-8.1-8.1s3.7-8.1 8.1-8.1z" fill="#FF7F99" p-id="1470"></path><path d="M562.5 598.6h-90.6c-5.2 0-9.5-4.3-9.5-9.5s4.3-9.5 9.5-9.5h90.6c5.2 0 9.5 4.3 9.5 9.5s-4.3 9.5-9.5 9.5z m-90.7-16.2a6.7 6.7 0 0 0 0 13.4h90.6a6.7 6.7 0 0 0 0-13.4h-90.6z" fill="#7F2B2E" p-id="1471"></path><path d="M316 569.1c8.5 0 15.4 6.9 15.4 15.4s-6.9 15.4-15.4 15.4-15.4-6.9-15.4-15.4 6.9-15.4 15.4-15.4z" fill="#FEFEFE" p-id="1472"></path><path d="M316 602.7c-10 0-18.2-8.2-18.2-18.2s8.2-18.2 18.2-18.2 18.2 8.2 18.2 18.2-8.1 18.2-18.2 18.2z m0-30.7c-6.9 0-12.5 5.6-12.5 12.5S309.1 597 316 597s12.5-5.6 12.5-12.5S322.9 572 316 572z" fill="#672610" p-id="1473"></path><path d="M259 763.1c-95.9 0-174-78.1-174-174s78.1-174 174-174 174 78.1 174 174-78.1 174-174 174z m0-325.3c-83.4 0-151.3 67.9-151.3 151.3S175.5 740.4 259 740.4c83.4 0 151.3-67.9 151.3-151.3S342.4 437.8 259 437.8z" fill="#7F2B2E" p-id="1474"></path><path d="M742.1 589.1m-41.3 0a41.3 41.3 0 1 0 82.6 0 41.3 41.3 0 1 0-82.6 0Z" fill="#672610" p-id="1475"></path><path d="M742.1 633.2c-24.3 0-44.1-19.8-44.1-44.1s19.8-44.1 44.1-44.1 44.1 19.8 44.1 44.1-19.8 44.1-44.1 44.1z m0-82.6c-21.2 0-38.4 17.2-38.4 38.4s17.2 38.4 38.4 38.4 38.4-17.2 38.4-38.4-17.2-38.4-38.4-38.4z" fill="#7F2B2E" p-id="1476"></path><path d="M765.6 757.4c-92.8 0-168.3-75.5-168.3-168.3s75.5-168.3 168.3-168.3 168.3 75.5 168.3 168.3-75.5 168.3-168.3 168.3z m0-325.3c-86.6 0-157 70.4-157 157s70.4 157 157 157 157-70.4 157-157-70.5-157-157-157z" fill="#7F2B2E" p-id="1477"></path><path d="M755.7 567c8.5 0 15.4 6.9 15.4 15.4s-6.9 15.4-15.4 15.4-15.4-6.9-15.4-15.4 6.9-15.4 15.4-15.4z" fill="#FEFEFE" p-id="1478"></path><path d="M755.7 600.6c-10 0-18.2-8.2-18.2-18.2s8.2-18.2 18.2-18.2 18.2 8.2 18.2 18.2-8.1 18.2-18.2 18.2z m0-30.7c-6.9 0-12.5 5.6-12.5 12.5s5.6 12.5 12.5 12.5 12.5-5.6 12.5-12.5-5.6-12.5-12.5-12.5z" fill="#672610" p-id="1479"></path><path d="M765.6 727.7c-76.4 0-138.6-62.2-138.6-138.6s62.2-138.6 138.6-138.6 138.6 62.2 138.6 138.6S842 727.7 765.6 727.7z m0-265.9c-70.2 0-127.2 57.1-127.2 127.2s57.1 127.2 127.2 127.2S892.8 659.1 892.8 589s-57.1-127.2-127.2-127.2z" fill="#7F2B2E" p-id="1480"></path><path d="M765.6 456.2c73.4 0 132.9 59.5 132.9 132.9S839 722 765.6 722s-132.9-59.5-132.9-132.9 59.5-132.9 132.9-132.9z m162.6 132.9c0-89.8-72.8-162.7-162.7-162.7-89.8 0-162.7 72.8-162.7 162.7 0 89.8 72.8 162.7 162.7 162.7 89.9-0.1 162.7-72.9 162.7-162.7z" fill="#FF9000" p-id="1481"></path><path d="M915.9 593.3c-2.3 0-4.3-1.9-4.3-4.3 0-80.6-65.5-146.1-146.1-146.1-2.3 0-4.3-1.9-4.3-4.3s1.9-4.3 4.3-4.3c85.2 0 154.6 69.3 154.6 154.6 0.1 2.5-1.8 4.4-4.2 4.4z" fill="#FEFEFE" p-id="1482"></path><path d="M912.8 609.2c3.3 0 6 2.7 6 6s-2.7 6-6 6-6-2.7-6-6 2.7-6 6-6z" fill="#FEFEFE" p-id="1483"></path><path d="M912.8 621.5c-3.5 0-6.3-2.8-6.3-6.3s2.8-6.3 6.3-6.3 6.3 2.8 6.3 6.3-2.8 6.3-6.3 6.3z m0-12c-3.2 0-5.7 2.6-5.7 5.7 0 3.2 2.6 5.7 5.7 5.7s5.7-2.6 5.7-5.7c0-3.2-2.5-5.7-5.7-5.7z" fill="#FEFEFE" p-id="1484"></path><path d="M259.8 725.5c-75.2 0-136.5-61.2-136.5-136.5 0-75.2 61.2-136.5 136.5-136.5S396.3 513.7 396.3 589c-0.1 75.3-61.3 136.5-136.5 136.5z m0-265.8c-71.3 0-129.4 58-129.4 129.4 0 71.3 58 129.4 129.4 129.4 71.3 0 129.4-58 129.4-129.4s-58.1-129.4-129.4-129.4z" fill="#FF9000" p-id="1485"></path><path d="M335.7 186.8c-3.2-3.8-10.4-7-21.5-4.3S288 194 277.1 201.1c-10.8 7.1-17.4 12.5-27.3 14.1-9.9 1.6-23.2-0.7-37.2 1.9-14 2.6-28.8 10.2-39.5 18-10.7 7.8-17.3 15.8-17.8 25.3-0.5 9.6 5 20.7 15.2 39.3 10.2 18.6 25 44.6 36.4 58.6 11.4 14 19.2 16.1 26.5 15.5 7.2-0.6 13.7-3.8 19.9-13.3 6.2-9.5 12.1-25.1 19.3-45.3 7.2-20.1 15.6-44.7 23.6-63 8-18.3 15.5-30.3 22.3-38.1 6.8-7.8 12.9-11.4 16.3-15.3 3.4-4 4.1-8.2 0.9-12z" fill="#FF3D40" p-id="1486"></path><path d="M231.2 375.9c-6.6 0-14.9-2.6-26-16.4-8.8-10.9-21.2-30.7-36.6-58.9-10-18.2-16-30-15.4-40.4 0.5-9.5 6.5-18 18.7-26.9 12.5-9.1 27.6-15.9 40.3-18.3 8.1-1.5 16-1.4 22.9-1.4 5.2 0.1 10.2 0.1 14.3-0.6 7.8-1.2 13.6-5.1 21.5-10.4 1.6-1.1 3.2-2.2 5-3.3 8.8-5.7 25.4-15.8 37.7-18.9 14.8-3.6 21.8 2.9 23.6 5 3.8 4.4 3.4 9.7-0.9 14.7-1.5 1.7-3.5 3.4-5.7 5.2-3.2 2.6-6.7 5.6-10.6 10.1-7.4 8.5-14.8 21.1-22 37.6-6.8 15.6-14.1 36.1-20.4 54.1-1.1 3-2.1 6-3.1 8.8-6.8 19.2-13 35.9-19.5 45.7-5.9 9-12.7 13.5-21.5 14.2-0.8 0.1-1.5 0.1-2.3 0.1z m-0.6-158.1c-5.6 0-11.6 0.2-17.6 1.3-12.2 2.3-26.6 8.9-38.6 17.6-11.1 8.1-16.5 15.6-17 23.7-0.5 9.2 5.6 21.1 14.9 38.1 15.3 27.9 27.5 47.5 36.2 58.3 11.2 13.8 18.4 15.2 24.6 14.7 7.5-0.6 13.2-4.4 18.3-12.3 6.2-9.5 12.3-25.9 19-44.8 1-2.9 2.1-5.8 3.1-8.8 6.4-18.1 13.7-38.6 20.6-54.4 7.4-16.9 15-29.9 22.7-38.7 4.1-4.7 8-7.9 11.1-10.5 2.1-1.8 3.9-3.3 5.2-4.8 4.4-5 1.7-8.1 0.9-9.1-2.9-3.4-9.5-6.1-19.4-3.6-11.7 2.9-27.8 12.7-36.4 18.3-1.8 1.1-3.4 2.2-5 3.3-8.1 5.4-14.4 9.7-23.2 11.1-4.5 0.7-9.6 0.7-15 0.6-1.4 0.1-2.9 0-4.4 0z" fill="#870002" p-id="1487"></path><path d="M685.7 189.6c3.4-3.5 10.5-6.3 21.2-3s24.9 12.7 35 20.2c10.2 7.5 16.3 13.1 25.8 15.2 9.6 2.1 22.6 0.6 36.1 3.9s27.5 11.5 37.4 19.7c10 8.2 16 16.3 16 25.7s-6 19.9-17 37.4-26.9 42-38.7 55c-11.9 13-19.6 14.6-26.6 13.6s-13.2-4.5-18.7-14c-5.5-9.6-10.4-25.2-16.2-45.2-5.9-20-12.7-44.4-19.5-62.7-6.8-18.3-13.4-30.4-19.6-38.4-6.2-8-12-11.8-15.1-15.8-3.1-4-3.5-8.1-0.1-11.6z" fill="#FF3D40" p-id="1488"></path><path d="M778.2 379.7c-1.2 0-2.4-0.1-3.6-0.3-8.6-1.2-15-6-20.2-15.1-5.8-10-10.9-26.6-16.4-45.6-0.8-2.8-1.7-5.8-2.6-8.8-5.2-17.9-11.1-38.2-16.9-53.8-6.1-16.4-12.6-29.2-19.3-37.8-3.5-4.5-6.8-7.6-9.8-10.4-2.1-2-3.9-3.6-5.3-5.4-4-5.1-4-10.3 0-14.4 1.9-1.9 9.1-7.9 23.4-3.5 11.9 3.6 27.4 14.4 35.7 20.5 1.7 1.2 3.2 2.4 4.7 3.5 7.4 5.6 12.8 9.7 20.3 11.3 4 0.9 8.8 1.1 13.9 1.3 6.8 0.3 14.4 0.7 22.3 2.6 12.3 3.1 26.6 10.6 38.3 20.1 11.4 9.3 16.7 18 16.7 27.3 0 10.2-6.5 21.3-17.3 38.5-16.6 26.6-29.7 45.2-39 55.3-10.8 12-18.6 14.7-24.9 14.7z m-80.3-192.4c-5.1 0-8.7 1.7-10.7 3.8-0.9 0.9-3.6 3.7 0.3 8.8 1.2 1.5 2.9 3.1 4.8 4.9 2.9 2.7 6.5 6.1 10.2 10.9 7 9 13.7 22.1 19.9 38.9 5.8 15.7 11.8 36.1 17 54.1 0.9 3 1.7 5.9 2.6 8.8 5.5 18.8 10.5 35.1 16 44.7 4.6 8 9.9 12 17.1 13 6 0.8 13.1-0.2 24.8-12.9 9.1-9.9 22-28.3 38.5-54.7 10-16.1 16.6-27.3 16.6-36.3 0-7.9-4.8-15.5-15.2-24-11.2-9.2-24.9-16.4-36.6-19.3-7.4-1.8-14.9-2.2-21.4-2.5-5.3-0.3-10.3-0.5-14.6-1.4-8.5-1.8-14.4-6.4-22-12.1-1.5-1.1-3-2.3-4.6-3.5-8-5.9-23.2-16.4-34.4-19.8-3.1-1-5.9-1.4-8.3-1.4z" fill="#870002" p-id="1489"></path><path d="M509.7 833.3c-37 0-71.7-7.1-98-20-26.9-13.2-41.6-31-41.6-50 0-1.6 1.3-2.8 2.8-2.8s2.8 1.3 2.8 2.8c0 16.8 13.7 32.8 38.5 45 25.5 12.5 59.4 19.4 95.5 19.4s70-6.9 95.5-19.4c24.8-12.2 38.5-28.1 38.5-45 0-1.6 1.3-2.8 2.8-2.8s2.8 1.3 2.8 2.8c0 19.1-14.8 36.9-41.6 50-26.3 12.9-61.1 20-98 20z" fill="#7F2B2E" p-id="1490"></path><path d="M419.4 817.2l2.7 12.1 2.7 12.2 9.2-8.4 9.2-8.5-11.9-3.7z" fill="#FEFEFE" p-id="1491"></path><path d="M424.8 844.3c-0.3 0-0.6 0-0.8-0.1-1-0.3-1.7-1.1-1.9-2.1l-5.4-24.4c-0.2-1 0.1-2 0.8-2.7 0.7-0.7 1.8-0.9 2.8-0.6l23.8 7.5c1 0.3 1.7 1.1 1.9 2.1 0.2 1-0.1 2-0.8 2.7l-18.4 16.9c-0.6 0.5-1.3 0.7-2 0.7z m-1.5-23l3.3 14.8 11.1-10.2-14.4-4.6z" fill="#7F2B2E" p-id="1492"></path><path d="M600.7 837.6l1.5-12.3 1.5-12.4-11.5 4.9-11.5 4.9 10 7.5z" fill="#FEFEFE" p-id="1493"></path><path d="M600.7 840.5c-0.6 0-1.2-0.2-1.7-0.6l-20-15c-0.8-0.6-1.2-1.6-1.1-2.6 0.1-1 0.8-1.9 1.7-2.3l22.9-9.8c0.9-0.4 2-0.3 2.8 0.3s1.2 1.6 1.1 2.6l-3 24.8c-0.1 1-0.8 1.9-1.7 2.3-0.3 0.2-0.6 0.3-1 0.3z m-14.3-17.2l12.1 9.1 1.8-15-13.9 5.9z" fill="#7F2B2E" p-id="1494"></path><path d="M546 708.2c-1.6 0-2.8-1.3-2.8-2.8 0-14.1-11.4-25.5-25.5-25.5s-25.5 11.4-25.5 25.5c0 1.6-1.3 2.8-2.8 2.8s-2.8-1.3-2.8-2.8c0-17.2 14-31.2 31.2-31.2s31.2 14 31.2 31.2c-0.2 1.5-1.5 2.8-3 2.8z" fill="#7F2B2E" p-id="1495"></path><path d="M517.4 707.1h-19.2c0-10.6 8.6-19.2 19.2-19.2s19.2 8.6 19.2 19.2h-19.2z" fill="#CCCCCC" p-id="1496"></path></svg>