<?xml version="1.0" standalone="no"?><!DOCTYPE svg PUBLIC "-//W3C//DTD SVG 1.1//EN" "http://www.w3.org/Graphics/SVG/1.1/DTD/svg11.dtd"><svg t="1573724204943" class="icon" viewBox="0 0 1024 1024" version="1.1" xmlns="http://www.w3.org/2000/svg" p-id="1195" xmlns:xlink="http://www.w3.org/1999/xlink" width="200" height="200"><defs><style type="text/css"></style></defs><path d="M899.573389 1024h-775.243683A124.523517 124.523517 0 0 1 0 899.573389v-387.621842A124.523517 124.523517 0 0 1 124.329706 387.621842h775.243683a124.523517 124.523517 0 0 1 124.426611 124.329705v387.621842a124.523517 124.523517 0 0 1-124.426611 124.426611z m-775.243683-581.432762a69.481215 69.481215 0 0 0-69.38431 69.384309v387.621842a69.481215 69.481215 0 0 0 69.38431 69.481215h775.243683a69.481215 69.481215 0 0 0 69.481215-69.481215v-387.621842a69.481215 69.481215 0 0 0-69.481215-69.384309z" p-id="1196"></path><path d="M754.312104 442.567238A27.521151 27.521151 0 0 1 726.790953 415.046087v-145.358191a214.839406 214.839406 0 0 0-429.581906 0v145.358191a27.521151 27.521151 0 1 1-54.945396 0v-145.358191a269.784802 269.784802 0 0 1 539.472698 0v145.358191a27.424245 27.424245 0 0 1-27.424245 27.521151zM512.048453 830.189079A27.521151 27.521151 0 0 1 484.527302 802.667928v-193.81092a27.521151 27.521151 0 0 1 54.945396 0v193.81092a27.424245 27.424245 0 0 1-27.424245 27.521151z" p-id="1197"></path></svg>