<?xml version="1.0" standalone="no"?><!DOCTYPE svg PUBLIC "-//W3C//DTD SVG 1.1//EN" "http://www.w3.org/Graphics/SVG/1.1/DTD/svg11.dtd"><svg t="1574313074632" class="icon" viewBox="0 0 1210 1024" version="1.1" xmlns="http://www.w3.org/2000/svg" p-id="1195" xmlns:xlink="http://www.w3.org/1999/xlink" width="236.328125" height="200"><defs><style type="text/css"></style></defs><path d="M593.93198955 962a28.49883662 28.49883662 0 0 1-20.14051992-8.35831583l-433.02118887-433.02118886A268.57383925 268.57383925 0 0 1 520.41909043 140.568875a28.59953906 28.59953906 0 0 1-40.28104072 40.28104072 211.47546445 211.47546445 0 0 0-299.08672823 299.08672822l433.02118888 433.02118887a28.59953906 28.59953906 0 0 1-20.14052081 48.74005899z" p-id="1196"></path><path d="M593.93198955 962a28.59953906 28.59953906 0 0 1-20.14051992-48.74005898l433.02118886-433.02118888a211.47546445 211.47546445 0 0 0-299.18743066-299.08672821L469.06076357 419.71648818a28.49883662 28.49883662 0 0 1-40.28104071-40.28104071L667.54559199 140.568875a268.57383925 268.57383925 0 0 1 379.74951212 379.85021542l-433.02118888 433.021188a28.80094395 28.80094395 0 0 1-20.34192568 8.55972158z" p-id="1197"></path></svg>