<?xml version="1.0" standalone="no"?><!DOCTYPE svg PUBLIC "-//W3C//DTD SVG 1.1//EN" "http://www.w3.org/Graphics/SVG/1.1/DTD/svg11.dtd"><svg t="1573724349756" class="icon" viewBox="0 0 1032 1024" version="1.1" xmlns="http://www.w3.org/2000/svg" p-id="1333" xmlns:xlink="http://www.w3.org/1999/xlink" width="201.5625" height="200"><defs><style type="text/css"></style></defs><path d="M943.029378 1024H86.928653a90.542541 90.542541 0 0 1-67.394124-32.1343l-1.269745-1.562762a88.882106 88.882106 0 0 1-15.920641-72.961465C48.836322 680.876002 244.18161 502.818771 476.251812 484.260969H478.595956a638.290729 638.290729 0 0 1 244.962991 44.050363 271.334605 271.334605 0 0 1 35.552842 17.288058c3.516215 1.953453 6.837085 3.809233 10.646319 5.665013l1.269744 0.781381a535.929798 535.929798 0 0 1 258.930179 365.393361 82.924075 82.924075 0 0 1-19.534529 74.817246 90.347196 90.347196 0 0 1-67.394124 31.743609zM62.315147 957.289584a34.966807 34.966807 0 0 0 24.613506 11.330027h856.100725a34.673789 34.673789 0 0 0 25.199542-12.209081 27.934376 27.934376 0 0 0 7.618466-26.371614v-1.465089a480.842427 480.842427 0 0 0-231.484166-328.180084c-4.395269-2.246471-8.204502-4.395269-12.20908-6.64174a230.50744 230.50744 0 0 0-29.301794-14.260206 585.254483 585.254483 0 0 0-223.279664-39.948111C272.018314 556.831744 98.161007 716.526517 56.552461 928.573827v1.465089A32.818008 32.818008 0 0 0 62.315147 957.289584z" p-id="1334"></path><path d="M516.004578 539.543686a269.771843 269.771843 0 1 1 269.771843-269.771843 270.064861 270.064861 0 0 1-269.771843 269.771843z m0-484.065624a214.391454 214.391454 0 1 0 214.879817 214.293781 214.879817 214.879817 0 0 0-214.879817-214.293781z" p-id="1335"></path></svg>