<?xml version="1.0" standalone="no"?><!DOCTYPE svg PUBLIC "-//W3C//DTD SVG 1.1//EN" "http://www.w3.org/Graphics/SVG/1.1/DTD/svg11.dtd"><svg t="1574313092364" class="icon" viewBox="0 0 1263 1024" version="1.1" xmlns="http://www.w3.org/2000/svg" p-id="1333" xmlns:xlink="http://www.w3.org/1999/xlink" width="246.6796875" height="200"><defs><style type="text/css"></style></defs><path d="M1004.39172348 933.875h-787.9062571A126.55744244 126.55744244 0 0 1 90.125 807.4160456v-590.92969345A126.55744244 126.55744244 0 0 1 216.48546638 90.12588659h787.9062571a126.55744244 126.55744244 0 0 1 126.4589544 126.36046556v590.92969345a126.55744244 126.55744244 0 0 1-126.4589544 126.4589544z m-787.9062571-787.90625794a70.61609812 70.61609812 0 0 0-70.51761009 70.51761009v590.92969345A70.61609812 70.61609812 0 0 0 216.48546638 878.03214371h787.9062571a70.61609812 70.61609812 0 0 0 70.61609811-70.61609811v-590.92969345a70.61609812 70.61609812 0 0 0-70.61609811-70.51761009z" p-id="1334"></path><path d="M610.43859451 539.92187102a28.06916062 28.06916062 0 0 1-15.75812466-4.92441422L109.82265603 202.69799317A27.97067175 27.97067175 0 0 1 99.38289856 168.91651239a125.7695365 125.7695365 0 0 1 117.10256782-78.7906258h787.9062571a125.86802453 125.86802453 0 0 1 117.20105585 78.7906258 27.87218373 27.87218373 0 0 1-9.84882843 33.48601584L626.29520803 534.99745682a28.36462554 28.36462554 0 0 1-15.85661352 4.92441422zM162.41539887 171.28023105L610.43859451 478.1697185l448.12168452-306.88948745a70.02516823 70.02516823 0 0 0-54.16855555-25.31148899h-787.9062571a70.02516823 70.02516823 0 0 0-54.07006752 25.31148899z" p-id="1335"></path></svg>