<?xml version="1.0" standalone="no"?><!DOCTYPE svg PUBLIC "-//W3C//DTD SVG 1.1//EN" "http://www.w3.org/Graphics/SVG/1.1/DTD/svg11.dtd"><svg t="1532063628339" class="icon" style="" viewBox="0 0 1024 1024" version="1.1" xmlns="http://www.w3.org/2000/svg" p-id="1989" xmlns:xlink="http://www.w3.org/1999/xlink" width="200" height="200"><defs><style type="text/css"></style></defs><path d="M944 944H80c-26.4 0-48-18.4-48-40.8V656h960v247.2c0 22.4-21.6 40.8-48 40.8z" fill="#5ACC9B" p-id="1990"></path><path d="M80 80h864c26.4 0 48 18.4 48 40.8V368H32V120.8C32 98.4 53.6 80 80 80z" fill="#6CCBFF" p-id="1991"></path><path d="M32 368h960v288H32z" fill="#FFD766" p-id="1992"></path><path d="M352 80h320v864H352z" fill="#FF5562" p-id="1993"></path><path d="M444 128h64v48h-64z m64-48h64v48h-64z m0 96h64v48h-64z m-64 48h64v48h-64z m64 48h64v48h-64z m-64 48h64v48h-64z m64 48h64v48h-64z m-64 48h64v48h-64z m64 48h64v48h-64z m-64 48h64v48h-64z m64 48h64v48h-64z m-64 48h64v48h-64z m64 48h64v48h-64z m-64 48h64v48h-64z m64 48h64v48h-64z m-64 48h64v48h-64z m0 96h64v48h-64z m64-48h64v48h-64z" fill="#FFFFFF" p-id="1994"></path></svg>