<?xml version="1.0" standalone="no"?><!DOCTYPE svg PUBLIC "-//W3C//DTD SVG 1.1//EN" "http://www.w3.org/Graphics/SVG/1.1/DTD/svg11.dtd"><svg t="1526728109328" class="icon" style="" viewBox="0 0 1024 1024" version="1.1" xmlns="http://www.w3.org/2000/svg" p-id="5236" xmlns:xlink="http://www.w3.org/1999/xlink" width="200" height="200"><defs><style type="text/css"></style></defs><path d="M422.2 350.7L391 319.3a28.913 28.913 0 0 0-41.2 0l-27.6 27.8c-11.4 11.5-11.4 30.1 0 41.5l31.2 31.5c-11.1 18.3-19.4 38.4-24.5 59.8h-44.1c-16.1 0-29.1 13.2-29.1 29.4v39.3c0 16.2 13 29.4 29.1 29.4h44.1c5.1 21.4 13.4 41.5 24.5 59.8l-31.2 31.5c-11.4 11.5-11.4 30.1 0 41.5l27.6 27.8c11.4 11.5 29.8 11.5 41.2 0l31.2-31.5c18.1 11.2 38 19.6 59.2 24.7v44.5c0 16.2 13 29.4 29.1 29.4h39c16.1 0 29.1-13.2 29.1-29.4v-44.5c21.2-5.2 41.1-13.6 59.2-24.7l31.2 31.5c11.4 11.5 29.8 11.5 41.2 0l27.6-27.8c11.4-11.5 11.4-30.1 0-41.6l-31.2-31.5c11.1-18.3 19.4-38.4 24.5-59.8h44.1c16.1 0 29.1-13.2 29.1-29.4v-39.3c0-16.2-13-29.4-29.1-29.4h-44.1c-5.1-21.4-13.4-41.5-24.5-59.8l31.2-31.5c11.4-11.5 11.4-30.1 0-41.6l-27.6-27.8a28.913 28.913 0 0 0-41.2 0l-31.2 31.5c-18.1-11.2-38-19.6-59.2-24.7v-44.5c0-16.2-13-29.4-29.1-29.4h-39c-16.1 0-29.1 13.2-29.1 29.4V326M431.6 304.2c-4.9 1.2-22.9 9.8-27.1 12.4" fill="#FCEE21" p-id="5237"></path><path d="M404.6 326.6c-3.4 0-6.7-1.7-8.6-4.8-2.9-4.8-1.4-11 3.3-13.9 4.5-2.8 23.5-12 30-13.6 5.4-1.3 10.8 2 12.1 7.4 1.3 5.4-2 10.9-7.4 12.2-3.3 0.8-20.2 8.7-24.2 11.2-1.6 1-3.4 1.5-5.2 1.5z" fill="#3E3A39" p-id="5238"></path><path d="M522.5 523.8m-78.2 0a78.2 78.2 0 1 0 156.4 0 78.2 78.2 0 1 0-156.4 0Z" fill="#FFFFFF" p-id="5239"></path><path d="M509.1 612.1c-56.1 0-101.8-45.6-101.8-101.8S453 408.6 509.1 408.6s101.8 45.6 101.8 101.8-45.7 101.7-101.8 101.7z m0-183.3c-45 0-81.6 36.6-81.6 81.6s36.6 81.6 81.6 81.6 81.6-36.6 81.6-81.6-36.6-81.6-81.6-81.6zM839 815.8h-24c-5.6 0-10.1-4.5-10.1-10.1s4.5-10.1 10.1-10.1h24c5.6 0 10.1 4.5 10.1 10.1s-4.5 10.1-10.1 10.1zM197.3 815.8h-30.7c-5.6 0-10.1-4.5-10.1-10.1s4.5-10.1 10.1-10.1h30.7c5.6 0 10.1 4.5 10.1 10.1s-4.6 10.1-10.1 10.1zM785.3 815.8H231.2c-5.6 0-10.1-4.5-10.1-10.1s4.5-10.1 10.1-10.1h554.1c5.6 0 10.1 4.5 10.1 10.1s-4.5 10.1-10.1 10.1z" fill="#3E3A39" p-id="5240"></path><path d="M689.6 229.6c-15.1 0-27.3-12.3-27.3-27.3 0-15.1 12.3-27.3 27.3-27.3 15.1 0 27.3 12.3 27.3 27.3 0 15.1-12.2 27.3-27.3 27.3z m0-41.2c-7.7 0-13.9 6.2-13.9 13.9s6.2 13.9 13.9 13.9 13.9-6.2 13.9-13.9-6.2-13.9-13.9-13.9z" fill="#47B7F8" p-id="5241"></path><path d="M246.5 273.2h-12v-12c0-3.2-2.6-5.8-5.8-5.8-3.2 0-5.8 2.6-5.8 5.8v12h-12c-3.2 0-5.8 2.6-5.8 5.8s2.6 5.8 5.8 5.8h12v12c0 3.2 2.6 5.8 5.8 5.8 3.2 0 5.8-2.6 5.8-5.8v-12h12c3.2 0 5.8-2.6 5.8-5.8s-2.6-5.8-5.8-5.8zM850.7 389.4h-12v-12c0-3.2-2.6-5.8-5.8-5.8-3.2 0-5.8 2.6-5.8 5.8v12h-12c-3.2 0-5.8 2.6-5.8 5.8s2.6 5.8 5.8 5.8h12v12c0 3.2 2.6 5.8 5.8 5.8 3.2 0 5.8-2.6 5.8-5.8v-12h12c3.2 0 5.8-2.6 5.8-5.8s-2.6-5.8-5.8-5.8z" fill="#F7E42F" p-id="5242"></path><path d="M110 547H96.1v-13.9a6.7 6.7 0 0 0-13.4 0V547h-14a6.7 6.7 0 0 0 0 13.4h13.9v13.9a6.7 6.7 0 0 0 13.4 0v-13.9h14a6.7 6.7 0 0 0 0-13.4z" fill="#F8B62D" p-id="5243"></path><path d="M337.6 212.4m-10.1 0a10.1 10.1 0 1 0 20.2 0 10.1 10.1 0 1 0-20.2 0Z" fill="#F8B62D" p-id="5244"></path><path d="M788.3 265.6m-13.4 0a13.4 13.4 0 1 0 26.8 0 13.4 13.4 0 1 0-26.8 0Z" fill="#F8B62D" p-id="5245"></path><path d="M238.6 391.2m-13.4 0a13.4 13.4 0 1 0 26.8 0 13.4 13.4 0 1 0-26.8 0Z" fill="#F7E42F" p-id="5246"></path><path d="M123 395.2c-15.1 0-27.3-12.3-27.3-27.3 0-15.1 12.3-27.3 27.3-27.3s27.3 12.3 27.3 27.3c0 15.1-12.3 27.3-27.3 27.3z m0-41.2c-7.7 0-13.9 6.2-13.9 13.9s6.2 13.9 13.9 13.9 13.9-6.2 13.9-13.9S130.6 354 123 354z" fill="#F8B62D" p-id="5247"></path><path d="M452 101.7c-1.5-1.4-3.8-1.4-5.3 0-0.7 0.7-1.1 1.6-1.1 2.6s0.4 1.9 1.1 2.6l11.9 11.9c0.7 0.7 1.6 1.1 2.6 1.1s1.9-0.4 2.6-1.1c1.4-1.5 1.4-3.8 0-5.3L452 101.7zM483.5 133.2c-0.7-0.7-1.6-1.1-2.6-1.1s-1.9 0.4-2.6 1.1c-1.4 1.5-1.4 3.8 0 5.3l11.9 11.9c0.7 0.7 1.6 1.1 2.6 1.1s1.9-0.4 2.6-1.1c0.7-0.7 1.1-1.6 1.1-2.6s-0.4-1.9-1.1-2.6l-11.9-12zM480.9 120c1 0 1.9-0.4 2.6-1.1l11.9-11.9c0.7-0.7 1.1-1.6 1.1-2.6s-0.4-1.9-1.1-2.6c-1.5-1.5-3.8-1.5-5.3 0l-11.9 11.9c-1.4 1.5-1.4 3.8 0 5.3 0.8 0.6 1.7 1 2.7 1zM458.7 133.2l-11.9 11.9c-0.7 0.7-1.1 1.6-1.1 2.6s0.4 1.9 1.1 2.6c0.7 0.7 1.6 1.1 2.6 1.1s1.9-0.4 2.6-1.1l11.9-11.9c1.4-1.5 1.4-3.8 0-5.3-1.4-1.3-3.8-1.3-5.2 0.1zM461 126c0-2.1-1.7-3.7-3.7-3.7h-16.9c-2.1 0-3.7 1.7-3.7 3.7 0 2.1 1.7 3.7 3.7 3.7h16.9c2 0 3.7-1.6 3.7-3.7zM501.9 122.3H485c-2.1 0-3.7 1.7-3.7 3.7 0 2.1 1.7 3.7 3.7 3.7h16.9c2.1 0 3.7-1.7 3.7-3.7s-1.7-3.7-3.7-3.7zM471.1 91.6c-2.1 0-3.7 1.7-3.7 3.7v16.9c0 2.1 1.7 3.7 3.7 3.7s3.7-1.7 3.7-3.7V95.3c0-2.1-1.6-3.7-3.7-3.7zM471.1 136.1c-2.1 0-3.7 1.7-3.7 3.7v16.9c0 2.1 1.7 3.7 3.7 3.7s3.7-1.7 3.7-3.7v-16.9c0-2-1.6-3.7-3.7-3.7z" fill="#FAEE00" p-id="5248"></path><path d="M903.4 520.3c-1.5-1.4-3.8-1.4-5.3 0-0.7 0.7-1.1 1.6-1.1 2.6s0.4 1.9 1.1 2.6l11.9 11.9c0.7 0.7 1.6 1.1 2.6 1.1s1.9-0.4 2.6-1.1c1.4-1.5 1.4-3.8 0-5.3l-11.8-11.8zM935 551.8c-0.7-0.7-1.6-1.1-2.6-1.1s-1.9 0.4-2.6 1.1c-1.4 1.5-1.4 3.8 0 5.3l11.9 11.9c0.7 0.7 1.6 1.1 2.6 1.1s1.9-0.4 2.6-1.1c0.7-0.7 1.1-1.6 1.1-2.6s-0.4-1.9-1.1-2.6l-11.9-12zM932.3 538.6c1 0 1.9-0.4 2.6-1.1l11.9-11.9c0.7-0.7 1.1-1.6 1.1-2.6s-0.4-1.9-1.1-2.6c-1.5-1.5-3.8-1.5-5.3 0l-11.9 11.9c-1.4 1.5-1.4 3.8 0 5.3 0.8 0.6 1.7 1 2.7 1zM910.1 551.8l-11.9 11.9c-0.7 0.7-1.1 1.6-1.1 2.6s0.4 1.9 1.1 2.6c0.7 0.7 1.6 1.1 2.6 1.1s1.9-0.4 2.6-1.1l11.9-11.9c1.4-1.5 1.4-3.8 0-5.3-1.3-1.3-3.8-1.3-5.2 0.1zM912.4 544.6c0-2.1-1.7-3.7-3.7-3.7h-16.9c-2.1 0-3.7 1.7-3.7 3.7s1.7 3.7 3.7 3.7h16.9c2 0.1 3.7-1.6 3.7-3.7zM953.3 540.9h-16.9c-2.1 0-3.7 1.7-3.7 3.7s1.7 3.7 3.7 3.7h16.9c2.1 0 3.7-1.7 3.7-3.7s-1.7-3.7-3.7-3.7zM922.5 510.2c-2.1 0-3.7 1.7-3.7 3.7v16.9c0 2.1 1.7 3.7 3.7 3.7s3.7-1.7 3.7-3.7v-16.9c0.1-2.1-1.6-3.7-3.7-3.7zM922.5 554.8c-2.1 0-3.7 1.7-3.7 3.7v16.9c0 2.1 1.7 3.7 3.7 3.7s3.7-1.7 3.7-3.7v-16.9c0.1-2.1-1.6-3.7-3.7-3.7z" fill="#F8B62D" p-id="5249"></path><path d="M277.1 689.5c1.3 5.4 4 10.6 8.2 14.9l29.7 29.7c12.2 12.2 32.1 12.2 44.3 0l16.6-16.6c-34.9-4.3-68.1-13.9-98.8-28zM773.1 458h-27.6C715.1 602.8 588 712.9 433.6 719.8c7.6 2.7 15.2 5.2 23.1 7.1v47.5c0 17.3 14 31.4 31.4 31.4h42c17.3 0 31.4-14 31.4-31.4v-47.5c22.8-5.5 44.3-14.5 63.8-26.4l33.6 33.6c12.2 12.2 32.1 12.2 44.3 0l29.7-29.7c12.2-12.2 12.2-32.1 0-44.3l-33.6-33.6c11.9-19.5 20.9-41 26.4-63.8h47.5c17.3 0 31.4-14 31.4-31.4v-42c-0.1-17.3-14.2-31.3-31.5-31.3z" fill="#F8B62D" p-id="5250"></path><path d="M530.1 815.8h-42c-22.9 0-41.4-18.6-41.4-41.4v-39.7c-18.2-5-35.7-12.3-52.1-21.6l-28.1 28.1c-16.2 16.2-42.4 16.2-58.6 0l-29.7-29.7c-7.8-7.8-12.1-18.2-12.1-29.3 0-11.1 4.3-21.5 12.1-29.3l28.1-28.1c-9.3-16.4-16.5-33.9-21.5-52.1H245c-22.8 0-41.4-18.6-41.4-41.4v-42c0-22.9 18.6-41.4 41.4-41.4h39.7c5.1-18.2 12.3-35.7 21.5-52.1l-28.1-28.1c-7.8-7.8-12.1-18.2-12.1-29.3 0-11.1 4.3-21.5 12.1-29.3l29.7-29.7c7.8-7.8 18.2-12.1 29.3-12.1 11.1 0 21.5 4.3 29.3 12.1 3.9 3.9 3.9 10.3 0 14.3-3.9 3.9-10.3 3.9-14.3 0-8-8-22-8-30.1 0l-29.7 29.7c-4 4-6.2 9.4-6.2 15s2.2 11 6.2 15l33.6 33.6c3.3 3.3 3.9 8.4 1.5 12.4-11.5 18.8-20 39.3-25.2 60.9-1.1 4.5-5.1 7.7-9.8 7.7H245c-11.7 0-21.3 9.5-21.3 21.3v42c0 11.7 9.5 21.3 21.3 21.3h47.5c4.7 0 8.7 3.2 9.8 7.7 5.2 21.6 13.7 42.1 25.2 60.9 2.4 4 1.8 9.1-1.5 12.4l-33.6 33.6c-4 4-6.2 9.4-6.2 15s2.2 11 6.2 15l29.7 29.7c8.3 8.3 21.8 8.3 30.1 0l33.6-33.6c3.3-3.3 8.4-3.9 12.4-1.5 18.8 11.5 39.3 20 60.9 25.2 4.5 1.1 7.7 5.1 7.7 9.8v47.5c0 11.7 9.5 21.3 21.3 21.3h42c11.7 0 21.3-9.5 21.3-21.3v-47.5c0-4.7 3.2-8.7 7.7-9.8 21.6-5.2 42-13.7 60.9-25.2 4-2.4 9.1-1.8 12.4 1.5l33.6 33.6c8.3 8.3 21.8 8.3 30.1 0l29.7-29.7c4-4 6.2-9.4 6.2-15s-2.2-11-6.2-15l-33.6-33.6c-3.3-3.3-3.9-8.4-1.5-12.4 11.5-18.8 20-39.3 25.2-60.9 1.1-4.5 5.1-7.7 9.8-7.7h47.5c11.7 0 21.3-9.5 21.3-21.3v-42c0-11.7-9.5-21.3-21.3-21.3h-47.5c-4.7 0-8.7-3.2-9.8-7.7-5.2-21.6-13.7-42.1-25.2-60.9-2.4-4-1.8-9.1 1.5-12.4l33.6-33.6c8.3-8.3 8.3-21.8 0-30.1L696 293.7c-8-8-22-8-30.1 0l-33.6 33.6c-3.3 3.3-8.4 3.9-12.4 1.5-18.8-11.5-39.3-20-60.9-25.2-4.5-1.1-7.7-5.1-7.7-9.8v-47.5c0-11.7-9.5-21.3-21.3-21.3h-42c-11.7 0-21.3 9.5-21.3 21.3 0 5.6-4.5 10.1-10.1 10.1s-10.1-4.5-10.1-10.1c0-22.9 18.6-41.4 41.4-41.4h42c22.9 0 41.4 18.6 41.4 41.4V286c18.2 5.1 35.7 12.3 52.1 21.5l28.1-28.1c7.8-7.8 18.2-12.1 29.3-12.1 11.1 0 21.5 4.3 29.3 12.1l29.7 29.7c16.2 16.2 16.2 42.4 0 58.6l-28.1 28.1c9.3 16.4 16.5 33.9 21.5 52.1h39.7c22.9 0 41.4 18.6 41.4 41.4v42c0 22.9-18.6 41.4-41.4 41.4h-39.7c-5.1 18.2-12.3 35.7-21.5 52.1l28.1 28.1c7.8 7.8 12.1 18.2 12.1 29.3 0 11.1-4.3 21.5-12.1 29.3l-29.7 29.7c-16.2 16.2-42.4 16.2-58.6 0l-28.1-28.1c-16.4 9.3-33.9 16.5-52.1 21.6v39.7c0.2 22.8-18.4 41.4-41.2 41.4z" fill="#3E3A39" p-id="5251"></path></svg>