<?xml version="1.0" standalone="no"?><!DOCTYPE svg PUBLIC "-//W3C//DTD SVG 1.1//EN" "http://www.w3.org/Graphics/SVG/1.1/DTD/svg11.dtd"><svg t="1549511291548" class="icon" style="" viewBox="0 0 1024 1024" version="1.1" xmlns="http://www.w3.org/2000/svg" p-id="9271" xmlns:xlink="http://www.w3.org/1999/xlink" width="200" height="200"><defs><style type="text/css"></style></defs><path d="M872.302531 722.500225l-61.240783-47.629787c-11.488659-8.936533-18.077727-22.409382-18.077727-36.965913L792.984021 418.33883c0-37.913495-7.437389-74.715679-22.101367-109.387339-14.154371-33.465183-34.408671-63.510476-60.198034-89.300862-25.78834-25.789363-55.834656-46.043662-89.299839-60.198034-12.772908-5.402033-25.839505-9.816576-39.140439-13.245675L582.244342 113.936959c0-38.734186-31.512714-70.245877-70.245877-70.245877-38.734186 0-70.245877 31.512714-70.245877 70.245877l0 32.269961c-13.300934 3.430122-26.366508 7.843642-39.141462 13.245675-33.465183 14.154371-63.509453 34.408671-89.299839 60.198034s-46.044686 55.834656-60.199057 89.300862c-14.663978 34.671661-22.100344 71.473845-22.100344 109.387339l0 219.565694c0 14.556531-6.589069 28.02938-18.079774 36.965913l-61.237713 47.629787c-11.455913 8.909927-19.460214 20.927635-23.149233 34.751478-3.360538 12.602016-2.882654 25.839505 1.385557 38.279838 4.269233 12.438287 12.016685 23.179932 22.407336 31.063483 11.399631 8.650007 25.095561 13.220093 39.607066 13.220093l640.102586 0c14.512529 0 28.208459-4.570085 39.607066-13.220093 10.390651-7.883551 18.138102-18.625196 22.406313-31.064506s4.749164-25.676799 1.385557-38.278815C891.760698 743.42786 883.756397 731.410152 872.302531 722.500225zM488.583173 113.936959c0-12.911054 10.504238-23.415292 23.415292-23.415292s23.415292 10.504238 23.415292 23.415292l0 20.47431-46.830585 0L488.583173 113.936959zM832.049758 792.985556 191.946149 792.985556c-17.836227 0-25.579585-22.569018-11.499915-33.518395l61.238736-47.63081c22.814612-17.744129 36.158525-45.028543 36.158525-73.931826L277.843494 418.33883c0-129.320321 104.832603-234.153948 234.153948-234.153948 129.320321 0 234.152924 104.833627 234.152924 234.153948l0 219.565694c0 28.903284 13.344936 56.187697 36.159548 73.931826l61.238736 47.63081C857.62832 770.416538 849.884962 792.985556 832.049758 792.985556zM832.049758 841.689814 191.946149 841.689814c-14.923898 0-29.012777-4.704139-40.738843-13.600763-10.68741-8.109702-18.657942-19.158339-23.046902-31.949666-4.389984-12.792351-4.882194-26.406416-1.423419-39.369659 3.794419-14.223956 12.027941-26.584472 23.808242-35.749202l61.23669-47.628764c11.031241-8.580422 17.356296-21.51399 17.356296-35.488259L229.138212 418.33883c0-38.164205 7.485485-75.211982 22.248723-110.116957 14.248516-33.688263 34.637892-63.934125 60.59917-89.89438 25.963325-25.963325 56.20714-46.351678 89.89438-60.598146 12.313443-5.208629 25.089421-9.56996 37.997406-12.970406l0-30.821983c0-39.765679 32.351825-72.119551 72.119551-72.119551 39.766702 0 72.120574 32.352849 72.120574 72.119551l0 30.821983c12.906961 3.400446 25.683962 7.761778 37.997406 12.970406 33.688263 14.247492 63.934125 34.635845 89.893356 60.598146 25.960255 25.960255 46.348608 56.205093 60.59917 89.89438 14.762215 34.903951 22.248723 71.951729 22.248723 110.116957l0 219.565694c0 13.973246 6.326079 26.90886 17.356296 35.488259l61.238736 47.628764c11.780301 9.163707 20.012799 21.525246 23.808242 35.749202 3.457752 12.96222 2.963495 26.575262-1.425466 39.368636-4.386914 12.792351-12.357446 23.840988-23.044856 31.950689C861.061512 836.985676 846.973656 841.689814 832.049758 841.689814zM511.998465 45.564755c-37.700647 0-68.373227 30.67258-68.373227 68.372204l0 33.721009-1.404999 0.36225c-13.207813 3.405563-26.287713 7.832386-38.878472 13.157671-33.241079 14.058181-63.084781 34.177404-88.705298 59.797921-25.619494 25.616424-45.737694 55.462173-59.797921 88.705298-14.56574 34.43937-21.951965 70.998007-21.951965 108.657722l0 219.565694c0 15.137769-6.853082 29.150924-18.802228 38.444591l-61.238736 47.63081c-11.129478 8.654101-18.906605 20.326954-22.487154 33.754778-3.266393 12.242835-2.800789 25.101701 1.345648 37.186947 4.14746 12.088316 11.6749 22.523993 21.767769 30.18037 11.070126 8.401344 24.375154 12.840446 38.474266 12.840446l640.102586 0c14.100136 0 27.403117-4.439102 38.476313-12.840446 10.090822-7.656377 17.620309-18.093077 21.766746-30.181393 4.14746-12.08627 4.613064-24.944112 1.344624-37.185924-3.581572-13.427824-11.358699-25.099654-22.487154-33.754778l-61.238736-47.63081c-11.95017-9.293667-18.801205-23.306822-18.801205-38.444591L791.109324 418.33883c0-37.660738-7.387247-74.218352-21.952988-108.657722-14.060227-33.242102-34.180474-63.08785-59.797921-88.705298-25.618471-25.618471-55.462173-45.737694-88.705298-59.797921-12.589736-5.325285-25.671683-9.752108-38.878472-13.157671l-1.404999-0.36225L580.369645 113.936959C580.371692 76.236312 549.700135 45.564755 511.998465 45.564755zM832.049758 794.859229 191.946149 794.859229c-8.93858 0-16.588817-5.463432-19.48989-13.919011-2.90005-8.455579-0.215918-17.464767 6.840802-22.953781l61.237713-47.628764c22.5199-17.514909 35.43607-43.924395 35.43607-72.454172L275.970844 418.33883c0-63.044872 24.552186-122.316813 69.130474-166.897148 44.579311-44.579311 103.851253-69.131497 166.897148-69.131497s122.31579 24.551162 166.899194 69.131497c44.578288 44.579311 69.12945 103.851253 69.12945 166.897148l0 219.565694c0 28.529777 12.915148 54.939263 35.43607 72.454172l61.238736 47.628764c7.055696 5.487991 9.739828 14.498202 6.839779 22.953781S840.989361 794.859229 832.049758 794.859229zM511.998465 186.057533c-128.081097 0-232.281297 104.2002-232.281297 232.281297l0 219.565694c0 29.695323-13.443174 57.181327-36.882002 75.411527l-61.237713 47.628764c-7.007601 5.450129-7.485485 13.275351-5.596462 18.779715 1.889023 5.505387 7.068999 11.388375 15.94618 11.388375l640.102586 0c8.876158 0 14.058181-5.884011 15.947204-11.389398 1.889023-5.503341 1.411139-13.32754-5.598508-18.778692l-61.23669-47.628764c-23.437805-18.2302-36.883025-45.717228-36.883025-75.411527L744.278739 418.33883C744.278739 290.257733 640.078539 186.057533 511.998465 186.057533zM537.287431 136.284943l-50.577932 0L486.709499 113.936959c0-13.94357 11.345396-25.287943 25.288966-25.287943 13.944594 0 25.288966 11.344373 25.288966 25.287943L537.287431 136.284943zM490.455823 132.537596l43.085284 0L533.541107 113.936959c0-11.877515-9.66308-21.541619-21.542642-21.541619-11.876492 0-21.542642 9.66308-21.542642 21.541619L490.455823 132.537596zM511.998465 980.308919c51.728128 0 93.662193-41.934065 93.662193-93.66117L418.336272 886.647749C418.336272 938.373831 460.269313 980.308919 511.998465 980.308919zM511.998465 982.182592c-52.67878 0-95.534843-42.856064-95.534843-95.534843l0-1.87265 191.07071 0 0 1.87265C607.534332 939.326529 564.676222 982.182592 511.998465 982.182592zM420.228365 888.520399c1.00284 49.749054 41.785685 89.914846 91.7701 89.914846 49.986461 0 90.768283-40.165792 91.771123-89.914846L420.228365 888.520399zM261.789866 155.555845c10.05296-8.135284 11.608386-22.880103 3.473101-32.93204-8.135284-10.05296-22.880103-11.608386-32.93204-3.474125-44.793182 36.247552-81.655741 80.112596-109.559255 130.377396-28.647457 51.603285-46.463218 107.533109-52.952003 166.237115-1.421372 12.854772 7.846712 24.426319 20.700461 25.846668 0.873903 0.096191 1.741667 0.144286 2.601244 0.144286 11.778254 0 21.920242-8.864902 23.245424-20.844747C127.928113 316.323389 179.573353 222.085074 261.789866 155.555845zM93.121376 443.62882c-0.932232 0-1.87572-0.052189-2.807952-0.154519-13.859659-1.530866-23.889083-14.053064-22.357194-27.913746 6.516414-58.95267 24.408923-115.118877 53.17713-166.94115 28.021194-50.475602 65.037249-94.525863 110.017696-130.923842 4.487198-3.631714 10.131755-5.631254 15.892969-5.631254 7.677866 0 14.849196 3.419889 19.674085 9.381671 4.248767 5.251607 6.199189 11.842723 5.490038 18.560728-0.707105 6.716982-3.988848 12.757558-9.241478 17.005302-81.829703 66.217121-133.23242 160.012344-144.739499 264.10612C116.808868 433.951413 106.016057 443.62882 93.121376 443.62882zM247.045047 115.809609c-4.977361 0-9.657964 1.658779-13.535271 4.797259-44.605917 36.09508-81.312934 79.776951-109.101837 129.830951-28.52466 51.384297-46.264697 107.077737-52.726875 165.534104-1.304715 11.805884 7.237845 22.473851 19.043728 23.779589 0.796132 0.086981 1.602498 0.130983 2.396583 0.130983 10.981099 0 20.173458-8.244778 21.383006-19.176758 11.616572-105.081267 63.504336-199.763696 146.106636-266.606057 4.472871-3.618411 7.269567-8.763594 7.871271-14.485923 0.603751-5.722328-1.057075-11.338233-4.676509-15.810081C259.697205 118.722962 253.587044 115.809609 247.045047 115.809609zM954.176237 415.766238c-6.487761-58.70503-24.303522-114.635877-52.952003-166.239162-27.90556-50.265824-64.766073-94.130867-109.561301-130.378419-10.050913-8.135284-24.794709-6.579859-32.93204 3.474125-8.134261 10.05296-6.579859 24.796756 3.474125 32.93204 82.21856 66.529229 133.862777 160.767544 145.425114 265.3566 1.323135 11.980869 11.466146 20.845771 23.2444 20.845771 0.859577 0 1.727341-0.048095 2.600221-0.144286C946.327478 440.191534 955.597609 428.619988 954.176237 415.766238zM930.874531 443.62882c-12.893658 0-23.685445-9.677407-25.106818-22.511713-11.506055-104.095823-62.909795-197.890023-144.741545-264.107143-10.840906-8.771781-12.521175-24.726148-3.751441-35.56603 4.826935-5.962805 11.996219-9.382695 19.675108-9.382695 5.762237 0 11.405771 1.99954 15.892969 5.631254 44.981471 36.397978 81.998549 80.449263 110.021789 130.924865 28.768207 51.823296 46.658669 107.989503 53.176107 166.942173 0.741897 6.714935-1.174756 13.316284-5.39794 18.588357-4.223185 5.27105-10.245342 8.583492-16.960277 9.325389C932.749228 443.576631 931.80574 443.62882 930.874531 443.62882zM776.948813 115.807562c-6.541997 0-12.651135 2.914376-16.762779 7.993045-7.471159 9.234315-6.037507 22.825868 3.197832 30.297027 82.6023 66.841338 134.493134 161.52479 146.108682 266.60708 1.207501 10.933003 10.400884 19.176758 21.381983 19.176758 0.793062 0 1.600451-0.044002 2.396583-0.130983 5.718235-0.633427 10.849092-3.454682 14.446014-7.944949 3.597945-4.493338 5.230118-10.115382 4.596691-15.835663-6.460132-58.456367-24.201192-114.149806-52.727898-165.535127-27.786857-50.055023-64.493873-93.736894-109.101837-129.830951C786.662035 117.511367 781.855566 115.807562 776.948813 115.807562z" p-id="9272" fill="#cdcdcd"></path></svg>