<?xml version="1.0" standalone="no"?><!DOCTYPE svg PUBLIC "-//W3C//DTD SVG 1.1//EN" "http://www.w3.org/Graphics/SVG/1.1/DTD/svg11.dtd"><svg t="1542248863707" class="icon" style="" viewBox="0 0 1024 1024" version="1.1" xmlns="http://www.w3.org/2000/svg" p-id="1682" xmlns:xlink="http://www.w3.org/1999/xlink" width="200" height="200"><defs><style type="text/css"></style></defs><path d="M369.066667 640c-4.266667 0-10.666667-2.133333-14.933334-4.266667-14.933333-8.533333-21.333333-27.733333-12.8-42.666666l130.133334-234.666667c14.933333-19.2 36.266667-29.866667 59.733333-29.866667 23.466667 0 46.933333 10.666667 61.866667 27.733334l2.133333 4.266666 128 215.466667c8.533333 14.933333 4.266667 34.133333-10.666667 44.8-14.933333 8.533333-34.133333 4.266667-44.8-10.666667l-125.866666-213.333333c-4.266667-2.133333-8.533333-4.266667-10.666667-4.266667-2.133333 0-6.4 0-10.666667 4.266667l-125.866666 228.266667c-4.266667 8.533333-14.933333 14.933333-25.6 14.933333z" fill="#FFBB12" p-id="1683"></path><path d="M716.8 855.466667H322.133333c-53.333333 0-102.4-34.133333-119.466666-83.2L93.866667 471.466667c-6.4-19.2 0-40.533333 14.933333-51.2 17.066667-12.8 38.4-12.8 53.333333 0L437.333333 618.666667c10.666667 8.533333 23.466667 12.8 36.266667 12.8h98.133333c14.933333 0 27.733333-4.266667 38.4-12.8l268.8-209.066667c17.066667-12.8 38.4-12.8 55.466667 0s23.466667 34.133333 14.933333 53.333333l-115.2 311.466667c-17.066667 46.933333-64 81.066667-117.333333 81.066667zM174.933333 507.733333l87.466667 243.2c8.533333 25.6 32 42.666667 59.733333 42.666667h392.533334c25.6 0 51.2-17.066667 59.733333-40.533333l91.733333-251.733334-217.6 168.533334c-21.333333 17.066667-49.066667 27.733333-78.933333 27.733333h-98.133333c-27.733333 0-53.333333-8.533333-74.666667-23.466667L174.933333 507.733333z" fill="#543E3E" p-id="1684"></path><path d="M102.4 341.333333m-42.666667 0a42.666667 42.666667 0 1 0 85.333334 0 42.666667 42.666667 0 1 0-85.333334 0Z" fill="#FFBB12" p-id="1685"></path><path d="M531.2 249.6m-42.666667 0a42.666667 42.666667 0 1 0 85.333334 0 42.666667 42.666667 0 1 0-85.333334 0Z" fill="#FFBB12" p-id="1686"></path><path d="M942.933333 322.133333m-42.666666 0a42.666667 42.666667 0 1 0 85.333333 0 42.666667 42.666667 0 1 0-85.333333 0Z" fill="#FFBB12" p-id="1687"></path></svg>