<?xml version="1.0" standalone="no"?><!DOCTYPE svg PUBLIC "-//W3C//DTD SVG 1.1//EN" "http://www.w3.org/Graphics/SVG/1.1/DTD/svg11.dtd"><svg t="1542248714789" class="icon" style="" viewBox="0 0 1024 1024" version="1.1" xmlns="http://www.w3.org/2000/svg" p-id="1448" xmlns:xlink="http://www.w3.org/1999/xlink" width="200" height="200"><defs><style type="text/css"></style></defs><path d="M512 710.4c-29.866667 0-57.6-10.666667-78.933333-32l-85.333334-85.333333c-21.333333-21.333333-32-49.066667-32-78.933334 0-29.866667 10.666667-57.6 32-78.933333l85.333334-85.333333c21.333333-21.333333 49.066667-32 78.933333-32 29.866667 0 57.6 10.666667 78.933333 32l85.333334 85.333333c21.333333 21.333333 32 49.066667 32 78.933333 0 29.866667-10.666667 57.6-32 78.933334l-85.333334 85.333333c-21.333333 19.2-49.066667 32-78.933333 32z m0-332.8c-12.8 0-25.6 4.266667-34.133333 14.933333l-85.333334 85.333334c-8.533333 8.533333-14.933333 21.333333-14.933333 34.133333 0 12.8 4.266667 25.6 14.933333 34.133333l85.333334 85.333334c17.066667 17.066667 49.066667 17.066667 68.266666 0l85.333334-85.333334c8.533333-8.533333 14.933333-21.333333 14.933333-34.133333 0-12.8-4.266667-25.6-14.933333-34.133333l-85.333334-85.333334c-8.533333-8.533333-21.333333-14.933333-34.133333-14.933333z" fill="#FFBB12" p-id="1449"></path><path d="M512 979.2C253.866667 979.2 44.8 770.133333 44.8 512S253.866667 44.8 512 44.8 979.2 253.866667 979.2 512 770.133333 979.2 512 979.2z m0-870.4C290.133333 108.8 108.8 290.133333 108.8 512c0 221.866667 181.333333 403.2 403.2 403.2 221.866667 0 403.2-181.333333 403.2-403.2 0-221.866667-181.333333-403.2-403.2-403.2z" fill="#543E3E" p-id="1450"></path></svg>