<?xml version="1.0" standalone="no"?><!DOCTYPE svg PUBLIC "-//W3C//DTD SVG 1.1//EN" "http://www.w3.org/Graphics/SVG/1.1/DTD/svg11.dtd"><svg t="1542248663148" class="icon" style="" viewBox="0 0 1024 1024" version="1.1" xmlns="http://www.w3.org/2000/svg" p-id="1328" xmlns:xlink="http://www.w3.org/1999/xlink" width="200" height="200"><defs><style type="text/css"></style></defs><path d="M849.066667 642.133333L810.666667 640c-17.066667 0-32-14.933333-29.866667-34.133333 0-17.066667 14.933333-32 34.133333-29.866667l36.266667 2.133333c40.533333 0 76.8-34.133333 76.8-76.8V298.666667c0-42.666667-34.133333-76.8-76.8-76.8H537.6c-42.666667 0-76.8 34.133333-76.8 76.8 0 17.066667-14.933333 32-32 32s-32-14.933333-32-32c0-78.933333 64-140.8 140.8-140.8h311.466667c78.933333 0 140.8 64 140.8 140.8v202.666666c0 76.8-61.866667 140.8-140.8 140.8z" fill="#FFBB12" p-id="1329"></path><path d="M134.4 878.933333c-14.933333 0-29.866667-4.266667-42.666667-12.8-23.466667-14.933333-36.266667-40.533333-36.266666-68.266666v-362.666667c0-91.733333 74.666667-166.4 166.4-166.4H682.666667c91.733333 0 166.4 74.666667 166.4 166.4v172.8c0 91.733333-74.666667 166.4-166.4 166.4H458.666667c-51.2 0-100.266667 10.666667-147.2 32l-142.933334 64c-10.666667 4.266667-21.333333 8.533333-34.133333 8.533333z m85.333333-544c-55.466667 0-102.4 44.8-102.4 102.4v360.533334c0 8.533333 4.266667 12.8 8.533334 14.933333 2.133333 2.133333 8.533333 4.266667 14.933333 2.133333l142.933333-64c55.466667-25.6 113.066667-38.4 172.8-38.4h221.866667c55.466667 0 102.4-44.8 102.4-102.4v-172.8c0-55.466667-44.8-102.4-102.4-102.4H219.733333z" fill="#543E3E" p-id="1330"></path><path d="M277.333333 531.2m-36.266666 0a36.266667 36.266667 0 1 0 72.533333 0 36.266667 36.266667 0 1 0-72.533333 0Z" fill="#FFBB12" p-id="1331"></path><path d="M439.466667 531.2m-36.266667 0a36.266667 36.266667 0 1 0 72.533333 0 36.266667 36.266667 0 1 0-72.533333 0Z" fill="#FFBB12" p-id="1332"></path><path d="M620.8 531.2m-36.266667 0a36.266667 36.266667 0 1 0 72.533334 0 36.266667 36.266667 0 1 0-72.533334 0Z" fill="#FFBB12" p-id="1333"></path></svg>