<?xml version="1.0" standalone="no"?><!DOCTYPE svg PUBLIC "-//W3C//DTD SVG 1.1//EN" "http://www.w3.org/Graphics/SVG/1.1/DTD/svg11.dtd"><svg t="1542248971462" class="icon" style="" viewBox="0 0 1024 1024" version="1.1" xmlns="http://www.w3.org/2000/svg" p-id="1802" xmlns:xlink="http://www.w3.org/1999/xlink" width="200" height="200"><defs><style type="text/css"></style></defs><path d="M827.733333 546.133333c-8.533333 4.266667-17.066667 10.666667-25.6 14.933334-14.933333 138.666667-134.4 247.466667-279.466666 247.466666-72.533333 0-138.666667-27.733333-187.733334-72.533333-25.6 6.4-51.2 10.666667-76.8 12.8 64 74.666667 157.866667 121.6 264.533334 121.6 189.866667 0 345.6-153.6 345.6-339.2v-10.666667c-4.266667 4.266667-10.666667 6.4-14.933334 10.666667-10.666667 6.4-19.2 10.666667-25.6 14.933333z" fill="#543E3E" p-id="1803"></path><path d="M1011.2 324.266667c-27.733333-74.666667-157.866667-70.4-268.8-51.2 21.333333 17.066667 38.4 36.266667 55.466667 57.6 104.533333-12.8 149.333333 4.266667 153.6 17.066666 4.266667 10.666667-14.933333 49.066667-93.866667 106.666667-12.8 8.533333-25.6 17.066667-40.533333 27.733333-6.4 4.266667-10.666667 6.4-17.066667 10.666667-2.133333 0-2.133333 2.133333-4.266667 2.133333-70.4 42.666667-155.733333 81.066667-245.333333 115.2-104.533333 38.4-192 61.866667-264.533333 74.666667-25.6 4.266667-49.066667 6.4-68.266667 8.533333-85.333333 8.533333-136.533333-2.133333-140.8-17.066666-4.266667-10.666667 17.066667-53.333333 102.4-113.066667 0-8.533333-2.133333-19.2-2.133333-27.733333 0-17.066667 2.133333-34.133333 4.266666-51.2-91.733333 55.466667-194.133333 138.666667-166.4 213.333333 17.066667 44.8 72.533333 64 151.466667 64 27.733333 0 59.733333-2.133333 91.733333-6.4 23.466667-4.266667 51.2-8.533333 76.8-12.8 76.8-17.066667 160-40.533333 238.933334-70.4 83.2-32 162.133333-66.133333 230.4-104.533333 8.533333-4.266667 17.066667-10.666667 25.6-14.933334 8.533333-4.266667 14.933333-8.533333 23.466666-14.933333 4.266667-4.266667 10.666667-6.4 14.933334-10.666667 81.066667-59.733333 168.533333-134.4 142.933333-202.666666z" fill="#FFBB12" p-id="1804"></path><path d="M795.733333 328.533333c-17.066667-21.333333-34.133333-40.533333-55.466666-57.6C682.666667 221.866667 605.866667 192 520.533333 192c-172.8 0-315.733333 125.866667-341.333333 290.133333-2.133333 17.066667-4.266667 34.133333-4.266667 51.2 0 8.533333 0 19.2 2.133334 27.733334 4.266667 46.933333 17.066667 91.733333 38.4 130.133333 21.333333-2.133333 44.8-4.266667 68.266666-8.533333-27.733333-42.666667-44.8-93.866667-44.8-149.333334 0-151.466667 125.866667-275.2 281.6-275.2 140.8 0 256 100.266667 277.333334 232.533334 6.4-4.266667 12.8-6.4 17.066666-10.666667 14.933333-8.533333 27.733333-19.2 40.533334-27.733333-10.666667-44.8-32-87.466667-59.733334-123.733334z" fill="#543E3E" p-id="1805"></path></svg>